<?xml version="1.0" encoding="UTF-8" standalone="no"?>
<!-- Created with Inkscape (http://www.inkscape.org/) -->

<svg
   xmlns:dc="http://purl.org/dc/elements/1.1/"
   xmlns:cc="http://creativecommons.org/ns#"
   xmlns:rdf="http://www.w3.org/1999/02/22-rdf-syntax-ns#"
   xmlns:svg="http://www.w3.org/2000/svg"
   xmlns="http://www.w3.org/2000/svg"
   xmlns:sodipodi="http://sodipodi.sourceforge.net/DTD/sodipodi-0.dtd"
   xmlns:inkscape="http://www.inkscape.org/namespaces/inkscape"
   id="svg5813"
   version="1.1"
   inkscape:version="0.48.2 r9819"
   width="453.87427"
   height="340.19699"
   xml:space="preserve"
   sodipodi:docname="TNT_head_foot.pdf"><metadata
     id="metadata5819"><rdf:RDF><cc:Work
         rdf:about=""><dc:format>image/svg+xml</dc:format><dc:type
           rdf:resource="http://purl.org/dc/dcmitype/StillImage" /><dc:title></dc:title></cc:Work></rdf:RDF></metadata><defs
     id="defs5817"><clipPath
       clipPathUnits="userSpaceOnUse"
       id="clipPath5839"><path
         d="M 0,0 496,0 496,4.5 0,4.5 0,0 z"
         id="path5841"
         inkscape:connector-curvature="0" /></clipPath><linearGradient
       x1="104.5"
       y1="224.96875"
       x2="475.77734"
       y2="224.96875"
       gradientUnits="userSpaceOnUse"
       gradientTransform="matrix(0.8,0,0,-0.50309,0,4.164941)"
       spreadMethod="pad"
       id="linearGradient5843"><stop
         style="stop-opacity:1;stop-color:#030f4a"
         offset="0"
         id="stop5845" /><stop
         style="stop-opacity:1;stop-color:#3a6daf"
         offset="1"
         id="stop5847" /></linearGradient><clipPath
       clipPathUnits="userSpaceOnUse"
       id="clipPath5927"><path
         d="M 0,0 496,0 496,32 0,32 0,0 z"
         id="path5929"
         inkscape:connector-curvature="0" /></clipPath><linearGradient
       x1="104.5"
       y1="224.96875"
       x2="475.77734"
       y2="224.96875"
       gradientUnits="userSpaceOnUse"
       gradientTransform="matrix(0.782393,0,0,-0.504297,8.310529,28.277309)"
       spreadMethod="pad"
       id="linearGradient5931"><stop
         style="stop-opacity:1;stop-color:#030f4a"
         offset="0"
         id="stop5933" /><stop
         style="stop-opacity:1;stop-color:#3a6daf"
         offset="1"
         id="stop5935" /></linearGradient></defs><sodipodi:namedview
     pagecolor="#ffffff"
     bordercolor="#000000"
     borderopacity="1"
     objecttolerance="10"
     gridtolerance="10"
     guidetolerance="10"
     inkscape:pageopacity="0"
     inkscape:pageshadow="2"
     inkscape:window-width="1920"
     inkscape:window-height="1145"
     id="namedview5815"
     showgrid="false"
     inkscape:zoom="0.70710678"
     inkscape:cx="515.21564"
     inkscape:cy="105.5593"
     inkscape:window-x="-2"
     inkscape:window-y="-3"
     inkscape:window-maximized="1"
     inkscape:current-layer="g5821"
     showguides="true"
     inkscape:guide-bbox="true"
     borderlayer="true"
     inkscape:snap-global="false"
     fit-margin-top="0"
     fit-margin-left="0"
     fit-margin-right="0"
     fit-margin-bottom="0"><inkscape:grid
       type="xygrid"
       id="grid7263"
       empspacing="5"
       visible="true"
       enabled="true"
       snapvisiblegridlinesonly="true" /><sodipodi:guide
       orientation="1,0"
       position="25.455844,290.26733"
       id="guide8978" /><sodipodi:guide
       orientation="0,1"
       position="-9.5459416,4.9497475"
       id="guide8980" /><sodipodi:guide
       orientation="1,0"
       position="-34.648232,117.37973"
       id="guide9020" /></sodipodi:namedview><g
     id="g5821"
     inkscape:groupmode="layer"
     inkscape:label="nv-labor"
     transform="matrix(1.25,0,0,-1.25,0.31606786,340.1575)"><g
   id="g5823" />

<text
   transform="scale(1,-1)"
   id="text5865"
   x="24.337999"
   y="-167.94501"><tspan
     style="font-size:7.97009993px;font-variant:normal;font-weight:normal;writing-mode:lr-tb;fill:#3333b3;fill-opacity:1;fill-rule:nonzero;stroke:none;font-family:MSAM10;-inkscape-font-specification:MSAM10"
     x="24.337999"
     y="-167.94501"
     id="tspan5867" /></text>




<text
   transform="scale(1,-1)"
   id="text5873"
   x="24.337999"
   y="-151.407"><tspan
     style="font-size:7.97009993px;font-variant:normal;font-weight:normal;writing-mode:lr-tb;fill:#3333b3;fill-opacity:1;fill-rule:nonzero;stroke:none;font-family:MSAM10;-inkscape-font-specification:MSAM10"
     x="24.337999"
     y="-151.407"
     id="tspan5875" /></text>




<text
   transform="scale(1,-1)"
   id="text5881"
   x="24.337999"
   y="-134.869"><tspan
     style="font-size:7.97009993px;font-variant:normal;font-weight:normal;writing-mode:lr-tb;fill:#3333b3;fill-opacity:1;fill-rule:nonzero;stroke:none;font-family:MSAM10;-inkscape-font-specification:MSAM10"
     x="24.337999"
     y="-134.869"
     id="tspan5883" /></text>












<text
   xml:space="preserve"
   style="font-size:16px;font-style:normal;font-variant:normal;font-weight:normal;font-stretch:normal;line-height:125%;letter-spacing:0px;word-spacing:0px;fill:#000000;fill-opacity:1;stroke:none;font-family:Arial;-inkscape-font-specification:Arial"
   x="87.050819"
   y="326.52438"
   id="text7234"
   sodipodi:linespacing="125%"
   transform="matrix(0.8,0,0,-0.8,0,272.126)"><tspan
     sodipodi:role="line"
     id="tspan7236"
     x="87.050819"
     y="326.52438" /></text>


<rect
   style="fill:#030f4a;fill-opacity:1;stroke:none"
   id="rect7265"
   width="363.09943"
   height="16.113182"
   x="-0.25285429"
   y="-272.09137"
   transform="scale(1,-1)"
   ry="0" /><rect
   style="fill:#030f4a;fill-opacity:1;stroke:none"
   id="rect7267"
   width="362.84595"
   height="23.799913"
   x="0"
   y="-23.768309"
   transform="scale(1,-1)" />



<g
   transform="matrix(0.17219815,0,0,0.17219815,-24.851955,-58.355575)"
   inkscape:label="TNT_lightv4"
   id="g7344"><g
     id="g7346"><path
       id="path7348"
       style="fill:#00509b;fill-opacity:1;fill-rule:nonzero;stroke:none"
       d="m 256.102,357.128 c -9.387,-3.305 -18.723,-4.957 -28,-4.957 -14.403,0 -23.149,4.902 -26.243,14.719 -0.957,2.984 -1.437,7.945 -1.437,14.879 l 0,37.761 -11.203,0 0,14.559 11.203,0 0,19.359 31.68,4.641 0,-24 21.277,0 0,-14.559 -21.277,0 0,-28.16 c 0,-14.617 3.703,-21.922 11.113,-21.922 2.898,0 5.906,0.696 9.019,2.082 l 3.868,-14.402 z"
       inkscape:connector-curvature="0" /><path
       id="path7350"
       style="fill:#00509b;fill-opacity:1;fill-rule:nonzero;stroke:none"
       d="m 356.418,354.089 -31.68,0 0,47.359 c 0,9.493 -3.57,14.243 -10.703,14.243 -8.547,0 -12.816,-5.551 -12.816,-16.641 l 0,-44.961 -31.68,0 0,80 31.68,0 0,-11.68 c 7.164,9.067 16.152,13.602 26.957,13.602 12.41,0 20.808,-4.535 25.195,-13.602 2.031,-4.16 3.047,-11.418 3.047,-21.761 l 0,-46.559 z"
       inkscape:connector-curvature="0" /><path
       id="path7352"
       style="fill:#00509b;fill-opacity:1;fill-rule:nonzero;stroke:none"
       d="m 436.898,357.128 c -9.386,-3.305 -18.718,-4.957 -28,-4.957 -14.398,0 -23.148,4.902 -26.238,14.719 -0.961,2.984 -1.441,7.945 -1.441,14.879 l 0,37.761 -11.199,0 0,14.559 11.199,0 0,19.359 31.679,4.641 0,-24 21.282,0 0,-14.559 -21.282,0 0,-28.16 c 0,-14.617 3.707,-21.922 11.118,-21.922 2.898,0 5.902,0.696 9.019,2.082 l 3.863,-14.402 z"
       inkscape:connector-curvature="0" /><path
       id="path7354"
       style="fill:#ffffff;fill-opacity:1;fill-rule:nonzero;stroke:none"
       d="m 250.34,360.585 c -9.387,-3.305 -18.719,-4.961 -28,-4.961 -14.399,0 -23.149,4.906 -26.238,14.723 -0.961,2.984 -1.442,7.945 -1.442,14.879 l 0,37.758 -11.199,0 0,14.562 11.199,0 0,19.359 31.68,4.641 0,-24 21.281,0 0,-14.562 -21.281,0 0,-28.161 c 0,-14.613 3.707,-21.918 11.117,-21.918 2.895,0 5.902,0.692 9.02,2.082 l 3.863,-14.402 z"
       inkscape:connector-curvature="0" /><path
       id="path7356"
       style="fill:#ffffff;fill-opacity:1;fill-rule:nonzero;stroke:none"
       d="m 350.66,357.546 -31.68,0 0,47.359 c 0,9.493 -3.57,14.239 -10.707,14.239 -8.543,0 -12.816,-5.547 -12.816,-16.637 l 0,-44.961 -31.68,0 0,80 31.68,0 0,-11.68 c 7.168,9.063 16.152,13.598 26.961,13.598 12.41,0 20.805,-4.535 25.191,-13.598 2.032,-4.16 3.047,-11.418 3.047,-21.761 l 0,-46.559 0.004,0 z"
       inkscape:connector-curvature="0" /><path
       id="path7358"
       style="fill:#ffffff;fill-opacity:1;fill-rule:nonzero;stroke:none"
       d="m 431.137,360.585 c -9.387,-3.305 -18.719,-4.961 -28,-4.961 -14.399,0 -23.145,4.906 -26.239,14.723 -0.96,2.984 -1.441,7.945 -1.441,14.879 l 0,37.758 -11.199,0 0,14.562 11.199,0 0,19.359 31.68,4.641 0,-24 21.281,0 0,-14.562 -21.281,0 0,-28.161 c 0,-14.613 3.707,-21.918 11.117,-21.918 2.898,0 5.906,0.692 9.019,2.082 l 3.864,-14.402 z"
       inkscape:connector-curvature="0" /><g
       transform="matrix(1,0,0,-0.920941,0,841.88977)"
       id="g7360"><path
         id="path7362"
         style="fill:none;stroke:#00509b;stroke-width:0.91699499;stroke-linecap:butt;stroke-linejoin:round;stroke-miterlimit:4;stroke-opacity:1;stroke-dasharray:none"
         d="m 183.676,447.322 c 0.289,-0.28 0.613,-0.45 0.84,-0.547 0.035,0.013 0.097,0.191 0.144,0.229 0.348,-0.064 0.442,-0.026 0.895,0.292 0.011,-0.063 0.027,-0.127 0.039,-0.195 0.308,0.225 0.199,0.272 0.468,-0.059 0.016,0.059 0.036,0.123 0.051,0.182 0.457,-0.627 0.391,-1.544 0.469,-2.388 0.023,0.251 0.117,0.615 0.148,0.781 0.008,-1.553 0.047,-3.105 0.079,-4.657 0.015,1.102 0.035,2.201 0.054,3.304 0.024,-0.267 0.059,-0.539 0.078,-0.806 0.086,0.543 0.114,1.111 0.121,1.671 0.079,-0.848 0.083,-1.701 0.106,-2.549 0.027,0.963 0.055,1.926 0.082,2.888 0.027,-0.615 0.055,-1.234 0.078,-1.853 0.043,1.938 0.234,3.838 0.387,5.768 0.023,-0.555 0.047,-1.107 0.066,-1.658 0.082,1.255 0.051,2.519 0.055,3.775 0.019,-0.339 0.051,-0.679 0.066,-1.022 0.297,0.996 0.129,2.473 0.149,3.609 0.011,-0.958 0.027,-1.917 0.039,-2.88 0.015,0.289 0.051,0.577 0.066,0.866 0.024,-0.509 0.059,-1.023 0.078,-1.536 0.02,0.751 0.036,1.497 0.055,2.244 0.098,-1.493 0.09,-2.99 0.133,-4.483 0.023,0.207 0.058,0.411 0.082,0.619 -0.012,-1.018 0.199,-1.985 0.293,-2.999 0.027,0.051 0.051,0.098 0.078,0.148 0.027,-1.429 0.059,-2.863 0.094,-4.292 0.027,0.314 0.051,0.628 0.066,0.942 0.012,-0.077 -0.012,-0.412 0.039,-0.442 0.02,0.518 0.055,1.035 0.071,1.549 0.011,-0.7 0.027,-1.404 0.039,-2.108 0.039,0.271 0.109,0.534 0.148,0.805 0.047,-0.661 0.082,-1.323 0.106,-1.989 0.242,1.888 0.089,3.856 0.105,5.756 0.019,-0.988 0.035,-1.977 0.055,-2.965 0.031,0.925 0,1.858 0.16,2.77 0.012,-0.06 0.027,-0.115 0.039,-0.17 0.066,1.735 0.254,3.44 0.265,5.179 0.192,-0.933 0.106,-2.231 0.122,-3.279 0.015,0.463 0.058,0.925 0.082,1.387 0.011,-0.224 0.039,-0.453 0.05,-0.682 0.024,1.722 0.047,3.448 0.067,5.166 0.015,-1.027 0.027,-2.053 0.043,-3.084 0.027,0.102 0.062,0.204 0.09,0.306 0.015,-0.297 0.027,-0.603 0.054,-0.9 0.008,0.81 -0.027,1.638 0.082,2.435 0.157,-1.667 0.223,-3.389 0.25,-5.069 0.012,0.238 0.032,0.471 0.043,0.709 0.082,-1.01 0.176,-1.968 0.2,-2.986 0.007,0.246 0.031,0.492 0.039,0.742 0.004,-0.386 0.035,-0.772 0.039,-1.158 0.004,0.509 0.105,1.031 0.187,1.451 0.024,-1.888 0.047,-3.771 0.067,-5.654 0.375,1.624 0.027,3.512 0.293,5.2 0.019,-0.925 0.035,-1.85 0.054,-2.779 0.106,2.104 0.434,4.047 0.469,6.155 0.039,-0.119 0.062,-0.246 0.105,-0.365 0.016,0.929 0.036,1.854 0.055,2.778 0.055,-0.165 0.063,-0.36 0.094,-0.534 0.015,0.314 0.055,0.624 0.066,0.937 0.012,-1.213 0.024,-2.43 0.039,-3.643 0.016,0.543 0.036,1.09 0.051,1.633 0.02,-0.624 0.035,-1.251 0.055,-1.879 0.023,0.831 0.043,1.658 0.066,2.49 0.02,-0.861 0.035,-1.727 0.055,-2.588 0.012,0.59 0.027,1.179 0.039,1.769 0.023,-0.047 0.043,-0.089 0.066,-0.136 0.032,0.726 0.063,1.447 0.094,2.172 0.129,-1.323 0.051,-2.659 0.16,-3.987 0.032,0.11 0.063,0.22 0.094,0.331 -0.016,-1.128 0.113,-2.261 0.172,-3.389 0.031,0.038 0.062,0.072 0.094,0.11 0.015,-0.573 0.027,-1.145 0.043,-1.718 0.019,1.065 0.043,2.129 0.066,3.194 0.012,-1.188 0.023,-2.371 0.039,-3.559 0.063,1.061 0.106,2.121 0.145,3.182 0.011,-1.964 0.019,-3.924 0.027,-5.888 0.129,1.854 0.07,3.716 0.176,5.569 0.023,-1.149 0.051,-2.298 0.078,-3.448 0.039,1.489 0.105,2.973 0.172,4.462 0.023,-0.602 0.047,-1.204 0.066,-1.802 0.008,1.671 0.09,3.406 0.27,5.068 0.027,-0.106 0.05,-0.212 0.078,-0.318 0.012,0.513 0.047,1.022 0.043,1.536 0.023,-1.031 0.051,-2.066 0.078,-3.097 0.016,0.857 0.035,1.714 0.055,2.571 0.011,-0.098 0.027,-0.195 0.039,-0.293 0.011,0.377 0.039,0.751 0.054,1.124 0.035,-0.848 0.028,-1.705 0.184,-2.367 0.016,0.598 0.027,1.196 0.043,1.794 0.031,-0.865 0.062,-1.73 0.094,-2.596 0.007,0.501 0.039,1.006 0.05,1.511 0.016,-0.357 0.055,-0.717 0.067,-1.074 0.015,0.098 0.027,0.195 0.043,0.293 0.117,-1.535 0.281,-3.075 0.465,-4.606 0.011,0.377 0.05,0.755 0.054,1.132 0.043,-1.599 0.082,-3.198 0.121,-4.801 0.016,1.472 0.032,2.943 0.051,4.411 0.016,-1.077 0.028,-2.159 0.039,-3.241 0.024,0.7 0.047,1.4 0.067,2.096 0.222,-0.933 0.129,-1.985 0.148,-2.961 0.356,3.376 0.027,6.876 0.707,10.214 0.008,-1.027 0.016,-2.057 0.028,-3.084 0.031,1.807 0.015,3.614 0.183,5.412 0.024,-0.878 0.047,-1.756 0.07,-2.634 0.016,1.086 0,2.172 0.106,3.254 0.156,-2.142 0.098,-4.301 0.121,-6.447 0.023,0.788 0.047,1.577 0.078,2.366 0.109,-1.268 0.231,-2.515 0.32,-3.779 0.032,0.106 0.063,0.212 0.094,0.318 0.047,-1.798 0.133,-3.592 0.172,-5.387 0.031,0.798 0.063,1.599 0.094,2.401 -0.008,-0.449 0.035,-0.903 0.043,-1.353 0.019,0.106 0.043,0.212 0.066,0.318 0.008,-0.411 0.051,-0.823 0.051,-1.234 0.047,1.506 -0.066,3.177 0.199,4.644 0.051,-0.598 0.078,-1.2 0.094,-1.802 0.027,0.551 0.055,1.103 0.082,1.658 0.012,-0.564 0.027,-1.132 0.039,-1.696 0.059,1.709 0.27,3.401 0.309,5.106 0,-0.335 0.031,-0.674 0.039,-1.009 0.015,0.225 0.05,0.454 0.066,0.683 0.031,-0.348 0.137,-0.772 0.172,-1.061 0.016,1.421 0.027,2.842 0.043,4.263 0.023,-0.068 0.051,-0.135 0.078,-0.208 0.023,0.509 0.109,1.006 0.172,1.502 0.059,-1.489 0.086,-2.969 0.094,-4.462 0.027,1.022 0.054,2.04 0.082,3.058 -0.032,-2.774 0.406,-5.4 0.453,-8.165 0.012,0.31 0.039,0.619 0.054,0.929 0.008,-0.369 0.043,-0.734 0.051,-1.099 0.028,0.62 0.055,1.235 0.082,1.854 0.035,-1.455 0.075,-2.91 0.106,-4.365 0.015,1.239 0.035,2.477 0.051,3.716 0.089,-1.769 0.125,-3.538 0.16,-5.311 0.019,1.197 0.008,2.397 0.082,3.593 -0.004,-0.39 0.035,-0.78 0.039,-1.171 0.258,1.256 0.125,2.613 0.148,3.89 0.012,-0.547 0.024,-1.099 0.039,-1.646 0.024,0.708 0.043,1.413 0.067,2.121 0.035,-0.136 0.054,-0.276 0.093,-0.416 0.016,1.086 0.102,2.159 0.118,3.245 0.027,-0.11 0.054,-0.22 0.082,-0.331 0.023,0.123 0.043,0.246 0.066,0.365 0.024,-0.526 0.063,-1.056 0.066,-1.582 0.02,1.947 0.032,3.894 0.094,5.836 0.016,-0.352 0.063,-0.704 0.082,-1.06 0.016,0.242 0.039,0.479 0.051,0.721 0.172,-1.582 0.102,-3.194 0.121,-4.78 0.012,1.514 0.028,3.024 0.039,4.534 0.047,-1.239 0.086,-2.477 0.121,-3.716 0.016,0.755 0.035,1.51 0.055,2.265 0.105,-2.574 0.41,-5.119 0.453,-7.698 -0.039,0.034 0.063,0.343 0.078,0.411 0.02,-0.305 0.051,-0.61 0.082,-0.912 0.012,1.006 0.024,2.015 0.039,3.02 0.075,-1.119 0.098,-2.243 0.133,-3.363 0.012,0.878 0.028,1.756 0.039,2.634 0.149,-1.523 0.067,-3.058 0.16,-4.585 0.043,1.726 0.161,3.448 0.188,5.17 0.031,-0.14 0.043,-0.284 0.066,-0.428 0.086,0.093 0.047,0.191 0.133,-0.026 0.09,1.93 0.262,3.847 0.332,5.777 0.012,-0.322 0.043,-0.649 0.055,-0.975 0.07,1.03 0.094,2.065 0.133,3.096 0.027,-1.383 -0.028,-2.96 0.148,-4.08 0.027,1.387 -0.125,2.918 0.188,4.263 0.011,-1.884 0.027,-3.767 0.039,-5.655 0.019,1.337 0.043,2.677 0.066,4.013 0.035,-1.514 0.031,-3.037 0.148,-4.547 0.008,0.462 0.032,0.925 0.04,1.387 0,-0.882 0.089,-1.76 0.16,-2.642 0.023,0.093 0.05,0.186 0.078,0.279 0,-0.415 0.051,-0.831 0.039,-1.242 0.039,0.135 0.035,0.288 0.055,0.424 0.164,-1.056 0.031,-2.134 0.199,-3.19 0.004,0.747 0.008,1.493 0.015,2.24 0.243,-1.375 0.18,-2.855 0.25,-4.25 0.028,1.179 0.055,2.362 0.082,3.546 0.043,-0.28 0.133,-0.577 0.172,-0.866 0.067,2.253 0.364,4.399 0.414,6.651 0.012,-0.072 0.028,-0.144 0.039,-0.216 0.024,0.797 0.047,1.599 0.067,2.401 0.031,-0.951 0.062,-1.901 0.094,-2.851 0.007,1.642 0.019,3.279 0.082,4.92 0.011,-1.603 0.023,-3.206 0.039,-4.814 0.015,1.235 0.035,2.473 0.054,3.707 0.028,-0.636 0.047,-1.382 0.133,-1.951 0.016,0.246 0.043,0.488 0.067,0.73 0.039,-0.284 0.043,-0.59 0.05,-0.874 0.032,0.064 0.063,0.127 0.094,0.195 0.012,-1.209 0.02,-2.413 0.027,-3.622 0.016,0.619 0.028,1.234 0.04,1.853 0.019,-0.61 0.035,-1.217 0.054,-1.828 0.024,0.183 0.055,0.365 0.078,0.547 0.047,-0.547 0.09,-1.094 0.121,-1.645 0.02,0.051 0.036,0.097 0.055,0.148 0.02,-0.869 0.027,-1.735 0.121,-2.596 0.02,0.403 0.067,0.802 0.078,1.205 0.004,-1.306 0.012,-2.617 0.016,-3.923 0.02,1.022 0.043,2.048 0.066,3.07 0.028,-1.255 0.051,-2.511 0.078,-3.766 0,0.483 0.032,0.967 0.04,1.451 0.074,-0.624 0.113,-1.252 0.136,-1.875 0.012,1.875 0.024,3.754 0.039,5.628 0.028,-1.747 0.051,-3.495 0.078,-5.238 0.02,1.9 -0.113,3.864 0.094,5.752 0.02,-0.993 0.035,-1.986 0.055,-2.974 0.027,0.615 0.051,1.234 0.078,1.85 0.016,-0.081 0.027,-0.162 0.043,-0.242 0.07,2.154 0.316,3.664 0.359,5.777 0.016,-0.857 0.036,-1.714 0.055,-2.571 0.07,1.273 0.086,2.55 0.117,3.826 0.094,-1.336 0.078,-2.676 0.094,-4.008 0.031,1.926 0.062,3.847 0.094,5.773 0.043,-1.833 0.078,-3.661 0.105,-5.493 0.02,1.476 0.035,2.956 0.055,4.437 0.187,-1.294 0.101,-2.626 0.121,-3.928 0.016,0.539 0.035,1.073 0.051,1.612 0.019,-0.776 -0.09,-2.571 0.203,-2.829"
         inkscape:connector-curvature="0" /></g><g
       transform="matrix(1,0,0,-0.920941,0,841.88977)"
       id="g7364"><path
         id="path7366"
         style="fill:none;stroke:#00509b;stroke-width:0.91699499;stroke-linecap:butt;stroke-linejoin:round;stroke-miterlimit:4;stroke-opacity:1;stroke-dasharray:none"
         d="m 321.402,449.392 0.09,-2.083 0.055,0.06 0.035,-0.34 0.066,-0.059 0.09,-0.038 0.051,-0.06 0.039,0.047 0.063,-0.085 0.039,0.06 0.062,0.076 0.067,-0.149 0.035,-0.046 0.054,0.008 0.075,0 0.05,0.208 0.067,-0.059 0.051,0.072 0.039,-0.132 0.062,0.047 0.051,0.098 0.051,-0.111 0.078,0.085 0.062,0.038 0.051,0.026 0.055,0.059 0.035,-0.085 0.078,0.013 0.039,0.216 0.039,-0.085 0.074,0.123 0.079,-0.072 0.039,-0.072 0.05,0.204 0.079,-0.106 0.035,0.008 0.078,-0.059 0.012,-0.136 0.066,0.149 0.062,-0.111 0.079,0 0.039,-0.046 0.062,-0.013 0.039,-0.013 0.09,-0.038 0.051,0.026 0.062,-0.047 0.016,0.034 0.062,-0.123 0.067,0 0.062,-0.106 0.051,0.169 0.039,-0.28 0.09,-0.012 0.063,0.267 0.039,0.013 0.039,0.059 0.078,-0.097 0.047,-0.06 0.054,-0.038 0.063,0.195 0.039,-0.021 0.074,0.034 0.067,0.025 0.039,0.013 0.062,0 0.051,0.072 0.039,0.085 0.074,-0.136 0.043,0.013 0.074,0.182 0.051,-0.034 0.078,0.111 0.039,-0.183 0.051,0.021 0.039,0 0.063,0.013 0.05,-0.085 0.051,0.098 0.078,-0.047 0.067,-0.051 0.035,-0.025 0.066,-0.047 0.063,0 0.039,-0.025 0.051,-0.085 0.039,-0.059 0.074,0.131 0.078,-0.021 0.051,-0.076 0.039,-0.073 0.066,-0.046 0.086,-0.085 0.039,0.301 0.039,-0.097 0.039,0.11 0.051,-0.11 0.09,-0.157 0.035,0.025 0.067,0.229 0.05,-0.072 0.09,0 0.039,0.051 0.039,0.059 0.039,0 0.075,0.072 0.078,0.06 0.039,-0.034 0.051,0.123 0.062,-0.064 0.055,-0.046 0.074,-0.064 0.051,0.305 0.027,-0.059 0.074,-0.136 0.039,-0.059 0.067,0.013 0.062,0.046 0.078,0.026 0.04,-0.17 0.05,0.119 0.051,-0.034 0.035,-0.072 0.078,-0.026 0.039,-0.025 0.063,-0.072 0.066,-0.013 0.063,-0.098 0.051,0.013 0.066,0.098 0.051,-0.183 0.051,0.026 0.062,0 0.039,0.144 0.051,-0.047 0.039,-0.174 0.09,0.136 0.066,0.183 0.051,-0.255 0.039,0.11 0.086,0.132 0.027,-0.072 0.051,0.059 0.067,0.038 0.035,0.013 0.09,0.059 0.05,0.051 0.039,0.06 0.067,-0.111 0.09,0.195 0.011,-0.11 0.063,-0.025 0.039,-0.132 0.078,0.085 0.063,0.038 0.062,0.132 0.039,0.012 0.051,0.026 0.078,-0.098 0.051,-0.161 0.039,0.064 0.039,-0.038 0.078,-0.047 0.063,-0.013 0.05,-0.012 0.051,-0.085 0.063,0.025 0.078,-0.148 0.039,0.051 0.066,-0.085 0.024,0.072 0.078,-0.11 0.051,0.195 0.039,-0.255 0.074,0.085 0.078,0.195 0.039,-0.136 0.051,0.17 0.074,-0.144 0.016,0.072 0.074,-0.059 0.066,0.11 0.035,0.021 0.055,0.038 0.086,0.026 0.039,0.046 0.067,0.039 0.05,-0.111 0.051,0.195 0.063,-0.161 0.039,0.013 0.05,0.293 0.067,-0.085 0.09,0.051 0.039,-0.246 0.051,0.084 0.039,0.098 0.074,-0.208 0.051,0.038 0.039,0.111 0.062,-0.17 0.078,0.013 0.039,-0.013 0.067,-0.013 0.062,-0.025 0.039,0 0.075,-0.123 0.015,-0.009 0.078,-0.076 0.047,0.148 0.078,-0.195 0.039,-0.072 0.075,0.34 0.039,-0.34 0.05,0.229 0.079,-0.216 0.062,0.327 0.027,-0.255 0.039,0.144 0.075,-0.034 0.066,-0.012 0.051,0.131 0.051,0.013 0.078,0.025 0.062,0.034 0.039,0.038 0.039,-0.046 0.051,0.072 0.078,-0.026 0.051,0.051 0.039,-0.097 0.063,0.28 0.09,-0.293 0.05,0.034 0.039,0.259 0.063,-0.174 0.051,-0.034 0.05,0.131 0.067,-0.008 0.039,-0.077 0.047,-0.084 0.094,-0.06 0.039,0.047 0.062,-0.047 0.051,0 0.039,-0.038 0.078,-0.085 0.047,-0.034 0.039,0 0.078,-0.025 0.067,-0.11 0.05,0.182 0.051,0.098 0.066,-0.145 0.036,0.145 0.05,-0.026 0.051,-0.072 0.067,0.072 0.074,-0.208 0.055,0.149 0.035,0 0.078,0.025 0.039,0.047 0.074,0.025 0.043,0.013 0.035,0.072 0.063,0.026 0.078,0.072 0.039,-0.111 0.062,0.183 0.067,-0.132 0.074,-0.076 0.039,0.271 0.027,-0.284 0.051,0.161 0.074,-0.097 0.079,-0.026 0.039,0.013 0.05,0.059 0.039,0.051 0.086,-0.072 0.067,-0.089 0.054,0.013 0.024,-0.047 0.09,-0.059 0.039,0.034 0.051,-0.047 0.062,-0.013 0.039,0.026 0.09,-0.038 0.051,-0.195 0.039,0.038 0.039,0.034 0.074,-0.098 0.051,0.246 0.066,-0.136 0.039,-0.084 0.075,0.11 0.05,-0.013 0.079,0.123 0.039,0.06 0.05,-0.06 0.039,0.034 0.063,0.038 0.101,0 0.079,0.013 0.066,0.059 0.035,0.183 0.067,-0.221 0.062,0.221 0.039,-0.195 0.051,0.072 0.078,-0.072 0.039,-0.06 0.074,0.318 0.051,-0.148 0.039,-0.038 0.078,-0.072 0.074,-0.06 0.016,0 0.063,0.098 0.039,-0.051 0.062,-0.047 0.078,-0.025 0.067,-0.013 0.035,0.013 0.051,0.013 0.089,-0.234 0.04,0.136 0.039,-0.059 0.039,-0.123 0.074,0.135 0.078,-0.012 0.039,-0.111 0.051,0.034 0.066,0.149 0.09,-0.051 0.035,0 0.051,0.11 0.027,-0.021 0.079,0.034 0.062,-0.013 0.039,0.038 0.063,0.013 0.078,0 0.039,0.047 0.062,0.012 0.063,0.072 0.015,0.077 0.075,-0.136 0.039,0.059 0.078,0.051 0.051,0.123 0.078,-0.135 0.035,-0.111 0.066,-0.012 0.051,-0.026 0.051,0.064 0.062,0.072 0.043,-0.098 0.047,0.013 0.078,-0.038 0.051,-0.047 0.063,-0.025 0.054,-0.11 0.039,-0.013 0.086,0.025 0.039,0 0.039,0.038 0.063,-0.084 0.043,-0.077 0.086,0.064 0.051,0.013 0.039,0.11 0.062,-0.123 0.094,0.072 0.012,0.025 0.062,-0.084 0.051,-0.026 0.066,0.17 0.063,-0.013 0.062,0 0.039,0.038 0.051,0.013 0.09,0.021 0.039,0.11 0.039,0.026 0.039,-0.17 0.078,0.255 0.078,0.051 0.047,-0.026 0.039,0.013 0.079,-0.064 0.062,-0.144 0.051,0.085 0.039,0.11 0.039,-0.246 0.078,0.026 0.051,0.012 0.051,0 0.066,-0.072 0.074,0.034 0.051,-0.034 0.039,-0.072 0.074,0.034 0.016,-0.144 0.078,0.097 0.063,-0.182 0.039,0.072 0.062,0.183 0.078,-0.319 0.039,0 0.063,0.039 0.062,-0.073 0.039,0.327 0.067,0.026 0.035,-0.136 0.051,-0.06 0.078,0.111 0.078,0.059 0.039,-0.047 0.051,0.047 0.039,0.038 0.074,0.034 0.051,0.064 0.039,0.034 0.066,0.051 0.075,0.072 0.05,-0.17 0.051,0.072 0.066,-0.157 0.04,0.306 0.074,-0.085 0.051,0.131 0.039,-0.034 0.05,-0.135 0.079,-0.051 0.039,-0.132 0.074,0.06 0.117,0 0.051,-0.06 0.027,0 0.063,-0.072 0.062,0 0.082,-0.085 0.035,0.119 0.063,-0.182 0.039,-0.047 0.078,0.021 0.063,0.038 0.054,0.123 0.035,-0.012 0.039,0.097 0.079,-0.352 0.05,0.183 0.063,-0.123 0.051,0.059 0.078,0.221 0.051,-0.123 0.039,0.135 0.039,-0.012 0.089,0.012 0.036,0.034 0.066,0.013 0.039,0.076 0.051,0.098 0.09,0 0.062,-0.11 0.039,0.207 0.063,-0.063 0.051,-0.072 0.054,-0.183 0.063,0.132 0.039,-0.119 0.074,0.305 0.066,-0.292 0.036,0.203 0.066,-0.034 0.051,-0.123 0.039,0.026 0.078,-0.085 0.035,-0.013 0.055,-0.038 0.074,0.026 0.078,-0.157 0.039,-0.026 0.051,0.123 0.078,-0.174 0.024,0.098 0.05,-0.144 0.051,-0.085 0.067,0.267 0.078,-0.038 0.035,-0.106 0.066,0.144 0.063,-0.136 0.078,0.234 0.035,-0.06 0.039,-0.097 0.051,0.144 0.051,-0.047 0.078,0.072 0.039,0 0.066,0.072 0.063,-0.038 0.062,-0.021 0.051,0.229 0.027,-0.059 0.051,0.097 0.09,-0.28 0.062,0.352 0.04,-0.292 0.05,0.084 0.039,0.196 0.09,-0.28 0.067,0.063 0.05,-0.076 0.024,-0.013 0.09,0.11 0.039,-0.059 0.051,-0.085 0.062,0 0.078,-0.025 0.051,-0.013 0.051,-0.047 0.039,-0.123 0.062,0.098 0.055,-0.17 0.051,0.06 0.062,0.051 0.039,-0.013 0.075,-0.072 0.054,-0.064 0.074,0.28 0.04,-0.242 0.074,0.026 0.015,-0.013 0.067,0.085 0.062,0.17 0.039,-0.06 0.075,0.047 0.066,0.025 0.039,0.013 0.063,0.085 0.074,-0.038 0.027,0.084 0.051,-0.11 0.039,0.195 0.078,-0.072 0.074,0.064 0.051,-0.174 0.043,0.182 0.074,-0.118 0.078,0.207 0.039,-0.025 0.039,-0.038 0.036,-0.111 0.089,-0.021 0.051,-0.051 0.039,-0.038 0.063,0 0.055,-0.034 0.085,-0.025 0.039,-0.047 0.04,0.06 0.039,-0.013 0.078,-0.221 0.074,0.208 0.039,-0.182 0.051,0.038 0.078,0.123 0.051,-0.149 0.062,0.026 0.055,0.144 0.023,-0.144 0.078,0.123 0.063,-0.089 0.039,0.025 0.063,0.098 0.078,-0.06 0.039,0.013 0.062,0.072 0.067,0.026 0.035,0 0.054,-0.013 0.036,0.131 0.078,0.013 0.051,-0.157 0.078,0.132 0.039,0.208 0.074,0.025 0.039,-0.365 0.051,0.06 0.066,-0.047 0.035,0.085 0.055,0.085 0.047,-0.085 0.078,-0.098 0.066,0.132 0.051,-0.072 0.051,-0.026 0.078,-0.034 0.024,-0.059 0.05,-0.076 0.067,0.063 0.09,-0.025 0.035,0.012 0.054,-0.025 0.036,0.013 0.066,-0.221 0.09,0.28 0.012,-0.254 0.066,0.046 0.051,0.077 0.062,0.059 0.063,-0.123 0.066,0.11 0.035,0.111 0.078,-0.123 0.063,0.063 0.039,0.013 0.039,0.059 0.039,0.013 0.078,0.013 0.074,0.059 0.04,-0.013 0.05,0.085 0.078,-0.059 0.063,-0.072 0.051,-0.013 0.043,0.314 0.05,-0.098 0.063,0.089 0.051,-0.233 0.051,0.182 0.066,-0.22 0.074,0.136 0.039,-0.085 0.051,-0.026 0.078,-0.038 0.039,-0.034 0.047,0 0.066,-0.025 0.04,-0.085 0.062,0.085 0.078,-0.085 0.039,-0.123 0.063,-0.021 0.062,0.144 0.039,-0.144 0.067,0.157 0.039,-0.157 0.051,0.059 0.089,0.123 0.063,-0.182 0.039,-0.013 0.051,0.208 0.039,0.021 0.074,0.013 0.051,-0.047 0.039,0.047 0.066,0.025 0.078,0.034 0.051,-0.034 0.051,0.098 0.062,0.034 0.079,-0.06 0.05,0.221 0.012,-0.051 0.063,0.098 0.05,-0.085 0.078,-0.013 0.04,0.076 0.078,-0.063 0.039,-0.06 0.078,-0.161 0.047,0.098 0.027,-0.098 0.063,0.098 0.066,-0.132 0.051,0.047 0.062,-0.047 0.063,-0.038 0.039,-0.021 0.082,-0.098 0.062,-0.051 0.039,0.098 0.047,-0.123 0.078,0.208 0.039,-0.157 0.051,0.072 0.063,-0.229 0.054,0.106 0.075,0.098 0.05,-0.013 0.04,-0.072 0.078,-0.013 0.05,0.076 0.039,0.085 0.063,-0.013 0.039,0.013 0.09,0.072 0.051,0.034 0.062,0.026 0.039,0.025 0.055,0.085 0.039,-0.123 0.074,0.076 0.051,-0.025 0.039,0.182 0.074,-0.208 0.078,-0.059 0.039,0.11 0.051,0.157 0.078,-0.013 0.024,-0.135 0.062,-0.085 0.039,0.076 0.067,-0.076 0.078,0.013 0.047,-0.034 0.054,-0.026 0.063,-0.038 0.078,-0.085 0.039,-0.034 0.035,0 0.055,0.119 0.051,-0.216 0.074,0.021 0.039,-0.021 0.078,0.169 0.051,-0.169 0.074,0.216 0.039,-0.047 0.028,0.013 0.05,-0.136 0.09,0.026 0.067,0 0.035,0.059 0.051,0.098 0.05,0.013 0.078,0.012 0.063,0.034 0.055,0.077 0.023,-0.051 0.09,0.11 0.039,-0.157 0.051,0.17 0.066,-0.026 0.086,-0.131 0.039,0.046 0.051,-0.072 0.039,0.352 0.039,-0.046 0.09,-0.013 0.039,-0.208 0.062,0.17 0.051,-0.072 0.067,-0.149 0.125,0 0.039,-0.034 0.051,-0.038 0.066,-0.072 0.051,-0.013 0.05,-0.072 0.04,-0.025 0.078,0.135 0.062,0.047 0.063,-0.208 0.043,0.089 0.074,0.145 0.027,-0.196 0.047,0.013 0.078,-0.072 0.039,0.157 0.074,-0.025 0.055,0.097 0.039,-0.059 0.074,0.025 0.079,0.034 0.011,0.038 0.067,0 0.039,0.034 0.086,0.051 0.05,0.047 0.067,0.063 0.035,0.026 0.066,-0.187 0.075,0.149 0.039,-0.183 0.043,0.123 0.039,-0.123 0.086,0.098 0.062,0.195 0.039,-0.123 0.051,-0.11 0.078,-0.047 0.078,0.013 0.039,0.046 0.012,-0.059 0.063,-0.013 0.078,-1.001 0.062,0.038 0.039,-1.768 0.067,0.462 0.074,1.137 0.051,0.22 0.054,-2.413 0.063,1.777 0.039,-1.073 0.051,-4.17 0.039,5.12 0.074,-1.23 0.051,-2.133 0.078,0.135 0.039,3.716 0.078,-0.853 0.035,1.196 0.051,-1.026 0.066,1.463 0.036,0.403 0.066,0.34 0.066,1.756 0.047,-0.925 0.067,-0.136 0.05,1.184 0.051,-0.658 0.067,3.058 0.05,2.337 0.036,-4.496 0.066,2.719 0.09,-4.424 0.039,1.205 0.051,0.428 0.062,-0.534 0.051,0.789 0.074,-1.934 0.016,1.425 0.066,-1.561 0.051,-0.183 0.09,-0.39 0.035,-0.755 0.066,-0.22 0.039,-0.17 0.075,-1.048 0.062,-2.829 0.028,-0.097 0.05,4.156 0.039,-1.866 0.078,-3.168 0.075,-1.498 0.054,3.008 0.039,1.768 0.075,-0.814 0.078,1.705 0.039,-0.318 0.035,-1.243 0.078,2.694 0.039,-0.047 0.063,0.585 0.039,0.157 0.062,0.709 0.078,-0.136 0.051,2.303 0.051,0.925 0.039,-2.63 0.066,3.949 0.051,-2.524 0.063,0.573 0.05,-1.281 0.051,2.108 0.078,-2.532 0.039,0.975 0.063,4.14 0.066,-2.35 0.035,-0.195 0.067,-2.647 0.051,1.061 0.039,-0.306 0.09,-1.947 0.062,-0.195 0.039,-1.047 0.051,-0.853 0.039,-0.428 0.078,-0.208 0.047,-0.123 0.039,-3.118 0.066,2.927 0.09,-0.39 0.039,-3.304 0.051,5.335 0.063,-4.457 0.078,2.973 0.051,-0.73 0.039,0.009 0.039,-1.642 0.05,4.458 0.079,-1.17 0.046,0.805 0.067,0.352 0.051,0.611 0.066,0.632 0.047,0.709 0.039,1.692 0.055,-1.875 0.074,-0.28 0.062,3.097 0.039,-2.367 0.067,5.425 0.035,-3.415 0.078,3.338 0.067,-2.031 0.062,-3.474 0.024,4.958 0.078,-0.314 0.039,-3.389 0.05,-0.793 0.079,-0.755 0.039,0.704 0.074,-1.569 0.051,-0.293 0.039,-1.145 0.051,-0.038 0.078,-0.717 0.039,-0.573 0.062,-2.282 0.039,-1.085 0.09,-0.437 0.051,3.219 0.066,1.888 0.035,-2.876 0.051,-3.326 0.055,1.01 0.062,3.741 0.051,1.391 0.039,-1.879 0.09,1.243 0.063,-1.243 0.039,0.963 0.05,1.001 0.079,1.145 0.039,0.45 0.046,0.013 0.067,2.328 0.039,-1.098 0.078,2.757 0.063,0.292 0.039,-1.951 0.062,0.195 0.078,3.411 0.012,-3.716 0.078,-1.595 0.039,3.19 0.074,-2.219 0.051,0.085 0.078,1.879 0.039,-2.082 0.051,-1.112 0.078,0.077 0.039,-0.28 0.035,-0.624 0.051,-0.135 0.078,-0.306 0.067,-1.438 0.035,-1.472 0.066,2.414 0.063,-3.194 0.051,0.522 0.066,-0.827 0.012,2.536 0.078,-1.599 0.074,0.696 0.051,-0.73 0.043,0.352 0.058,1.671 0.09,-3.037 0.039,0.976 0.051,0.377 0.063,2.049 0.015,0.67 0.09,0.475 0.039,1.035 0.063,0.683 0.054,1.693 0.086,-0.327 0.039,0.56 0.067,0.793 0.035,-2.257 0.051,4.463 0.078,-1.841 0.039,1.315 0.051,-1.01 0.039,-2.328 0.078,2.731 0.074,-4.449 0.051,3.838 0.039,-0.61"
         inkscape:connector-curvature="0" /></g><g
       transform="matrix(1,0,0,-0.920941,0,841.88977)"
       id="g7368"><path
         id="path7370"
         style="fill:none;stroke:#00509b;stroke-width:0.91699499;stroke-linecap:butt;stroke-linejoin:round;stroke-miterlimit:4;stroke-opacity:1;stroke-dasharray:none"
         d="m 377.336,451.318 c 0.09,-2.308 0.301,-4.204 0.348,-6.41 0.015,0.565 0.035,1.129 0.05,1.693 l 0.051,-3.864 c 0.02,0.08 0.043,0.157 0.063,0.233 0.027,-0.615 0.05,-1.234 0.078,-1.849 0.004,1.701 0.008,3.401 0.012,5.102 0.023,-2.129 0.046,-4.254 0.066,-6.383 0.019,1.629 0.043,3.257 0.062,4.886 0.012,-0.479 0.047,-0.959 0.063,-1.438 0.012,0.31 0.043,0.619 0.055,0.929 0.019,-0.712 0.039,-1.425 0.062,-2.133 0.004,0.347 0.031,0.695 0.039,1.047 0.016,-0.415 0.047,-0.831 0.063,-1.243 0.023,1.472 0.05,2.948 0.078,4.424 -0.004,-0.564 0.019,-1.124 0.074,-1.683 0.039,1.068 0.176,2.129 0.246,3.193 0.012,-0.156 0.027,-0.318 0.039,-0.475 0.024,0.531 0.067,1.065 0.09,1.595 0.016,-0.322 0.051,-0.649 0.063,-0.975 0.011,0.933 0.027,1.862 0.039,2.791 0.011,-0.692 0.023,-1.387 0.039,-2.083 0.011,1.277 0.023,2.553 0.039,3.826 0.031,-1.273 0.007,-2.558 0.14,-3.826 0.012,1.01 0.024,2.015 0.039,3.024 0.02,-1.293 0.043,-2.583 0.063,-3.877 0.066,1.277 0.109,2.55 0.141,3.826 0.042,-1.365 0.05,-2.727 0.066,-4.093 0.019,0.53 0.051,1.065 0.074,1.595 0.004,-0.407 0.043,-0.81 0.051,-1.217 0.019,0.258 0.059,0.517 0.078,0.78 0.109,-1.595 0.234,-3.168 0.281,-4.767 0.016,0.441 0.051,0.878 0.063,1.319 0.015,-0.84 0.027,-1.676 0.043,-2.511 0.011,0.356 0.039,0.712 0.051,1.073 0.015,-0.984 0.031,-1.968 0.046,-2.952 0.02,0.861 0.043,1.722 0.067,2.583 0.023,-0.034 0.047,-0.072 0.074,-0.106 0.02,0.598 0.035,1.192 0.051,1.79 0.019,-0.866 -0.012,-1.731 0.117,-2.583 0.012,0.742 0.027,1.484 0.039,2.231 0.016,-0.7 0.035,-1.4 0.051,-2.1 0.148,1.251 0.137,2.511 0.168,3.767 0.015,-0.391 0.058,-0.781 0.074,-1.171 0.043,1.272 0.18,2.494 0.207,3.767 0.02,-0.471 0.059,-0.942 0.078,-1.413 0.008,0.984 0.016,1.968 0.024,2.948 0.019,-0.551 0.035,-1.103 0.05,-1.654 0.024,1.166 0.051,2.337 0.079,3.508 0.058,-1.51 0.089,-3.02 0.113,-4.535 0.019,1.917 -0.055,3.856 0.09,5.765 0.031,-1.93 0.058,-3.86 0.089,-5.79 0.02,1.629 0.043,3.257 0.063,4.886 0.008,-1.658 0.023,-3.313 0.078,-4.971 0.016,1.311 0.035,2.626 0.051,3.936 0.027,-1.209 0.051,-2.422 0.078,-3.631 0.027,0.196 0.082,0.403 0.117,0.573 0.028,-1.315 0.188,-2.621 0.215,-3.936 0.008,0.343 0.031,0.687 0.039,1.035 0.02,-0.424 0.059,-0.844 0.078,-1.268 0.012,0.046 0.024,0.089 0.039,0.135 0.024,-0.632 0.051,-1.259 0.078,-1.887 0.016,0.874 0.032,1.752 0.047,2.63 0.016,-1.583 0.028,-3.169 0.039,-4.751 0.028,1.476 0.051,2.956 0.078,4.437 0.024,-1.879 0.051,-3.754 0.079,-5.633 0.011,1.073 0.023,2.146 0.039,3.219 0.008,-0.483 0.027,-0.967 0.039,-1.45 0.031,1.573 0.047,3.151 0.113,4.729 0.023,-1.247 0.043,-2.49 0.066,-3.733 0.168,2.796 0.375,5.43 0.434,8.229 0.027,-0.348 0.106,-0.823 0.117,-1.222 0.078,0.696 0.113,1.4 0.129,2.1 0.012,-0.92 0.024,-1.837 0.039,-2.757 0.176,1.09 0.106,2.261 0.125,3.376 0.016,-1.094 0.028,-2.193 0.039,-3.291 0.028,1.565 0.016,3.13 0.102,4.691 0.07,-1.866 0.125,-3.737 0.207,-5.603 0.023,0.187 0.066,0.399 0.09,0.598 0.117,-0.988 0.125,-1.981 0.203,-2.973 0.035,0.309 0.113,0.615 0.152,0.924 0.051,-0.963 0.067,-1.925 0.09,-2.888 0.02,0.755 0.043,1.51 0.063,2.269 0.031,-1.794 -0.051,-3.635 0.128,-5.412 0.016,1.675 0.028,3.355 0.039,5.03 0.235,-1.226 0.149,-2.523 0.165,-3.775 0.019,1.531 0.035,3.063 0.05,4.594 0.024,-1.184 0.043,-2.371 0.067,-3.559 -0.008,0.509 0.027,1.018 0.039,1.523 0.023,-0.059 0.051,-0.123 0.078,-0.182 0.066,2.434 -0.024,5.28 0.461,7.643 0.012,-0.653 0.023,-1.311 0.035,-1.964 0.023,0.64 0.047,1.285 0.066,1.926 0.016,-0.251 0.036,-0.497 0.051,-0.743 0.086,0.857 0.086,1.731 0.113,2.596 0.016,-1.374 0.028,-2.748 0.04,-4.118 0.015,1.073 0.035,2.15 0.05,3.228 0.028,-1.286 0.051,-2.567 0.078,-3.852 0.02,0.713 0.036,1.425 0.118,2.134 0.023,-0.933 0.027,-1.858 0.14,-2.779 0.024,0.047 0.051,0.098 0.078,0.145 0.02,-2.214 0.118,-4.636 0.434,-6.834 0.016,0.743 0.035,1.485 0.051,2.227 0.015,-0.339 0.051,-0.678 0.062,-1.022 0.02,0.984 0.035,1.968 0.051,2.952 0.027,-1.633 0.074,-3.262 0.129,-4.89 0.258,1.556 0.09,3.482 0.101,5.145 0.004,-0.492 0.04,-0.984 0.051,-1.476 0.403,1.607 0.422,4.178 0.449,6.167 0.043,-0.369 0.11,-0.734 0.141,-1.107 l 0.016,2.29 c 0.133,-1.107 0.097,-2.227 0.113,-3.338 0.027,0.641 0.051,1.281 0.078,1.926 0.016,-0.221 0.039,-0.441 0.051,-0.658 0.012,0.565 0.023,1.129 0.039,1.693 0.016,-0.34 0.059,-0.675 0.074,-1.01 0.02,0.832 0.035,1.663 0.055,2.499 0.023,-1.133 0.047,-2.261 0.074,-3.389 0.016,0.784 0.027,1.569 0.039,2.349 0.012,-1.179 0.028,-2.362 0.039,-3.546 0.016,0.603 0.035,1.205 0.051,1.807 0.094,-1.484 0.285,-2.981 0.32,-4.462 l 0.039,0.17 c 0.059,-1.23 0.067,-2.46 0.079,-3.69 0.128,0.742 0.121,1.497 0.152,2.252 0.016,-1.12 0.031,-2.244 0.047,-3.364 0.015,1.001 0.027,1.998 0.039,2.999 0.058,-1.137 0.086,-2.282 0.195,-3.414 0.016,1.467 0.031,2.935 0.047,4.403 0.02,-1.269 0.047,-2.537 0.066,-3.805 0.036,1.798 -0.035,3.639 0.141,5.425 0.012,-0.301 0.047,-0.603 0.063,-0.904 0.085,1.044 0.222,2.087 0.246,3.135 0.007,-0.356 0.062,-0.721 0.089,-1.061 0.317,1.744 0.188,3.682 0.243,5.315 0.011,-1.141 0.023,-2.282 0.039,-3.427 0.027,1.438 0.051,2.88 0.078,4.318 0.023,-1.777 0.137,-3.546 0.164,-5.315 0.012,1.557 0.019,3.109 0.027,4.666 0.02,-1.506 0.043,-3.012 0.063,-4.522 0.019,0.671 0.043,1.341 0.062,2.011 0.239,-1.391 0.176,-2.897 0.285,-4.314 0.024,0.03 0.051,0.06 0.075,0.085 0.007,-1.001 -0.051,-2.015 0.078,-3.007 0.07,0.971 0.093,1.947 0.129,2.922 0.015,-0.907 0.035,-1.811 0.05,-2.719 0.016,0.357 0.051,0.709 0.063,1.061 0.016,-1.307 0.035,-2.617 0.051,-3.924 0.027,1.171 0.05,2.342 0.078,3.512 0.031,-0.186 0.035,-0.386 0.051,-0.572 0.007,0.288 0.027,0.577 0.039,0.865 0.058,-0.738 0.058,-1.48 0.074,-2.218 0.019,0.492 0.066,0.984 0.09,1.476 0.019,-0.327 0.051,-0.653 0.066,-0.976 0.047,2.893 0.317,5.752 0.445,8.653 0.02,-1.09 0.036,-2.176 0.051,-3.266 0.016,1.362 0.028,2.723 0.039,4.085 0.075,-0.683 0.117,-1.366 0.153,-2.049 0.027,1.247 0.054,2.494 0.09,3.741 0.023,-1.328 0.042,-2.659 0.066,-3.987 0.012,0.093 0.023,0.187 0.039,0.284 0.016,-0.729 0.035,-1.455 0.051,-2.184 0.051,0.225 0.086,0.471 0.113,0.733 0.027,-0.072 0.051,-0.139 0.078,-0.207 0.027,0.207 0.051,0.424 0.102,0.598 0.051,-1.311 0.179,-2.613 0.218,-3.924 0.02,0.352 0.075,0.704 0.102,1.061 0.027,-1.387 0.051,-2.774 0.078,-4.157 0.059,1.289 0.082,2.575 0.102,3.864 0.051,-1.994 0.082,-3.991 0.101,-5.985 0.129,1.476 0.094,2.965 0.153,4.45 0.027,-1.082 0.05,-2.164 0.078,-3.245 0.051,0.742 0.09,1.48 0.117,2.218 0.012,-0.288 0.039,-0.573 0.051,-0.865 0.023,1.115 0.051,2.227 0.078,3.342 0.019,-0.237 0.055,-0.471 0.078,-0.708 0.016,0.958 0.043,1.917 0.113,2.876 0.032,-0.187 0.114,-0.488 0.141,-0.721 0.015,0.856 0.027,1.709 0.039,2.561 0.016,-0.424 0.051,-0.844 0.062,-1.268 0.016,1.213 0.028,2.431 0.04,3.644 0.027,-0.607 0.07,-1.213 0.144,-1.816 0.008,1.281 0.016,2.566 0.023,3.852 0.122,-1.082 0.098,-2.18 0.129,-3.266 0.016,0.712 0.032,1.429 0.047,2.146 0.055,-1.871 0.024,-3.758 0.157,-5.62 0.003,0.615 0.042,1.234 0.152,1.841 0.148,-1.527 0.207,-3.05 0.258,-4.585 0.004,0.305 0.027,0.61 0.035,0.916 0.019,-0.365 0.062,-0.73 0.078,-1.099 0.019,0.043 0.043,0.085 0.066,0.123 0.016,-0.212 0.02,-0.437 0.063,-0.645 0.008,0.475 0.035,0.951 0.039,1.426 0.012,-0.62 0.023,-1.235 0.039,-1.854 0.012,0.386 0.047,0.768 0.062,1.149 0.168,-1.276 0.102,-2.612 0.129,-3.902 0.012,1.095 0.024,2.185 0.036,3.279 0.046,-0.92 0.089,-1.837 0.128,-2.757 0.016,1.429 -0.085,2.901 0.118,4.318 0.015,-0.204 0.027,-0.407 0.05,-0.611 -0.105,1.782 0.196,3.915 0.434,5.692 l 0.09,-2.244 c 0.008,0.929 0.015,1.854 0.023,2.779 0.071,-1.205 0.074,-2.414 0.09,-3.618 0.024,2.167 0.043,4.339 0.067,6.506 0.035,-1.989 -0.059,-4.229 0.242,-6.031 l 0.09,2.341 c 0.148,-1.514 0.273,-3.101 0.293,-4.632 0.019,0.115 0.042,0.229 0.066,0.34 0.109,-1.642 0.113,-3.296 0.254,-4.933 0.023,0.195 0.047,0.39 0.078,0.585 -0.008,-0.534 0.031,-1.086 0.113,-1.599 0.02,1.217 0.035,2.43 0.051,3.643 0.027,-1.264 0.051,-2.528 0.078,-3.787 0.02,2.031 0.195,4.093 0.129,6.103 l 0.063,-3.728 c 0.066,1.832 0.218,3.643 0.32,5.472 0.012,-0.064 0.023,-0.123 0.039,-0.183 0.016,0.564 0.031,1.128 0.051,1.693 0.019,-0.123 0.027,-0.251 0.05,-0.378 0.012,0.764 0.024,1.527 0.04,2.291 0.019,-0.518 0.054,-1.031 0.074,-1.549 0.015,0.187 0.027,0.374 0.043,0.56 0.015,-0.878 -0.02,-1.93 0.125,-2.719 0.062,1.353 0.113,2.707 0.179,4.06 0.016,-1.349 0.004,-2.707 0.102,-4.06 0.02,0.891 0.047,1.782 0.102,2.673 0.019,-0.984 0.035,-1.968 0.05,-2.953 0.016,0.119 0.028,0.238 0.043,0.357 0.086,-1.218 0.879,-1.442 1.535,-0.636 0.032,-0.005 0.188,-0.208 0.243,-0.23 0.031,0.056 0.09,0.293 0.117,0.314 0.226,-0.216 0.855,-0.598 0.996,-0.67 0.016,0.11 0.027,0.221 0.039,0.331 0.156,-0.204 0.191,-0.089 0.414,-0.17 0.238,0.28 0.484,0.28 0.613,0.306 0.098,0.076 0.016,0.182 0.075,0.242 0.519,-0.492 1.336,-0.866 2.05,-0.073 0.164,0.022 -0.129,-0.25 0.09,0.047 0.024,-0.059 0.051,-0.119 0.078,-0.182 -0.011,0 0.094,0.199 0.086,0.195 0.364,-0.327 0.793,-0.547 1.129,-0.488 0.02,-0.059 0.043,-0.119 0.063,-0.182 0.246,0.25 0.523,0.335 0.843,0.644 0.02,-0.106 0.036,-0.207 0.055,-0.314 0.422,0.081 0.563,0.047 1.063,-0.33 l 0.035,0.28 c 0.191,-0.302 0.035,-0.039 0.179,-0.293 0.024,0.102 0.047,0.204 0.067,0.305 0.019,-0.097 0.043,-0.195 0.062,-0.292 0.016,0.097 0.028,0.195 0.039,0.292 0.262,0.026 0.375,0.051 0.602,0.259 0.297,-0.051 -0.148,-0.208 0.141,0.021 0.211,0.017 0.023,-0.127 0.32,0.051 0.105,-0.102 0.457,-0.301 0.629,-0.539 0.015,0.068 0.031,0.132 0.051,0.196 0.16,-0.17 0.015,-0.056 0.187,-0.255 0.078,0.009 0.082,0.233 0.106,0.28 0.085,-0.089 0.019,-0.229 0.101,-0.327 0.285,0.234 0.453,0.306 0.715,0.594 0.027,-0.059 0.051,-0.119 0.078,-0.182 0.016,0.072 0.035,0.148 0.051,0.22 0.285,-0.182 -0.11,-0.165 0.207,0.034 0.398,-0.33 0.75,-0.458 1.008,-0.606 0.023,0.08 0.047,0.161 0.066,0.242 0.09,-0.047 0.067,-0.187 0.168,-0.217 0.356,0.263 0.621,0.301 0.895,0.535 0.156,-0.072 0.043,-0.145 0.152,-0.242 0.168,0.008 0.051,0.178 0.152,0.204 0.16,-0.174 0.219,-0.213 0.539,-0.45 0.325,0.051 0.75,-0.042 1.188,0.45 0.09,-0.013 0.125,-0.213 0.207,-0.23 0.141,0.191 0.098,0.204 0.297,0.255 0.285,-0.28 0.582,-0.403 0.765,-0.632 0.071,0.098 0.063,0.216 0.118,0.331 0.023,-0.106 0.05,-0.212 0.078,-0.318 0.308,0.216 0.679,0.348 0.804,0.377 0.016,0.098 0.036,0.195 0.051,0.293 0.379,-0.098 0.016,-0.11 0.321,0.013 0.261,-0.297 0.488,-0.361 0.867,-0.683 0.324,0.186 0.797,0.428 1.015,0.585 0.016,-0.068 0.035,-0.131 0.051,-0.195 0.191,0.102 0.121,0.102 0.281,0.216 0.278,-0.199 0.555,-0.339 0.731,-0.521 0.23,0.067 0.043,0.229 0.265,-0.111 0.063,0.072 0.043,0.246 0.09,0.344 0.059,-0.013 0.067,-0.225 0.157,-0.259 0.214,0.208 0.351,0.335 0.597,0.513 0.285,-0.012 0.008,-0.093 0.449,0.047 0.305,-0.284 0.586,-0.297 0.848,-0.607 0.066,0.06 0.016,0.213 0.09,0.28 0.023,-0.097 0.051,-0.195 0.078,-0.292 0.016,0.097 0.031,0.195 0.047,0.292 0.121,-0.144 0.023,-0.169 0.117,0.026 0.02,-0.064 0.043,-0.123 0.063,-0.187 0.136,0.191 0.332,0.229 0.617,0.501 0.101,-0.064 0.133,-0.17 0.281,-0.28 0.02,0.089 0.035,0.178 0.051,0.267 0.316,-0.25 0.531,-0.318 0.883,-0.293 0.019,-0.106 0.043,-0.212 0.066,-0.318 0.016,0.102 0.031,0.204 0.047,0.306 0.019,-0.106 0.035,-0.217 0.051,-0.327 0.027,0.106 0.05,0.216 0.078,0.327 0.015,-0.039 0.051,-0.217 0.101,-0.229 0.079,0.084 0.164,0.203 0.258,0.241"
         inkscape:connector-curvature="0" /></g><g
       transform="matrix(1,0,0,-0.920941,0,841.88977)"
       id="g7372"><path
         id="path7374"
         style="fill:none;stroke:#00509b;stroke-width:0.91699499;stroke-linecap:butt;stroke-linejoin:round;stroke-miterlimit:4;stroke-opacity:1;stroke-dasharray:none"
         d="m 209.617,447.492 0.051,-0.463 0.039,-0.267 0.063,-0.454 0.089,-2.557 0.016,-0.331 0.063,1.281 0.039,-3.559 0.074,3.414 0.051,-3.096 0.078,-1.854 0.039,3.877 0.051,-3.609 0.078,6.218 0.023,-1.502 0.067,1.612 0.035,-1.171 0.078,0.23 0.066,-1.12 0.051,1.327 0.051,1.294 0.062,0.267 0.078,0.221 0.039,0.119 0.012,1.501 0.078,0.607 0.074,-1.12 0.051,2.036 0.039,2.375 0.078,0.891 0.075,-2.257 0.039,1.065 0.051,-1.209 0.027,-3.168 0.062,2.888 0.078,-1.879 0.04,2.524 0.062,-2.329 0.055,-0.789 0.086,0.229 0.039,-1.34 0.066,-0.365 0.035,-0.67 0.067,-1.658 0.062,-0.293 0.039,0.547 0.051,-1.739 0.063,-1.137 0.066,-1.718 0.062,5.302 0.051,-0.352 0.039,-0.559 0.063,-3.682 0.066,3.02 0.039,-0.013 0.063,1.612 0.039,-2.867 0.078,1.013 0.062,1.086 0.067,0.696 0.035,0.399 0.051,1.013 0.039,0.938 0.078,1.158 0.051,0.852 0.078,-2.485 0.035,3.227 0.078,-2.629 0.039,4.996 0.051,-2.146 0.078,-0.034 0.024,1.849 0.05,-2.069 0.051,-1.795 0.078,2.804 0.063,-2.545 0.054,-0.78 0.051,1.217 0.078,-1.4 0.063,-0.136 0.012,-0.899 0.066,-0.123 0.051,-0.195 0.074,-0.755 0.055,-1.255 0.035,-1.705 0.066,-0.454 0.086,0.916 0.055,-1.451 0.035,-0.78 0.027,0.793 0.079,3.495 0.062,-1.828 0.062,0.136 0.04,1.976 0.054,-3.185 0.086,-1.069 0.039,1.06 0.067,1.913 0.011,2.108 0.079,0.072 0.074,0.208 0.039,0.768 0.051,1.476 0.066,-0.857 0.074,2.965 0.051,-0.441 0.055,0.161 0.035,-1.879 0.066,-0.169 0.051,4.177 0.051,-4.228 0.062,-0.509 0.078,5.081 0.039,-3.402 0.051,0.255 0.078,0.988 0.036,-2.838 0.054,0.866 0.063,-0.501 0.039,-1.23 0.062,-0.683 0.078,-0.937 0.039,-1.086 0.063,1.183 0.062,-1.586 0.067,-1.569 0.035,3.083 0.039,-4.254 0.055,1.743 0.074,-0.39 0.078,2.643 0.039,-1.536 0.051,1.705 0.035,-2.523 0.09,-0.191 0.066,2.591 0.012,-0.326 0.066,-0.255 0.09,1.302 0.036,-0.598 0.054,1.001 0.063,1.145 0.039,-0.436 0.09,1.081 0.05,-0.755 0.024,3.377 0.051,0.525 0.078,-2.489 0.039,-1.544 0.078,4.042 0.035,-0.814 0.055,-2.291 0.074,-0.11 0.078,-0.183 0.039,-0.292 0.012,1.951 0.078,-1.989 0.063,-0.412 0.078,-0.28 0.039,0.267 0.074,-0.793 0.051,-0.767 0.039,0.195 0.078,-0.403 0.012,-0.475 0.078,-1.243 0.062,-1.599 0.039,1.366 0.063,-1.939 0.078,3.232 0.062,-5.692 0.039,0.182 0.063,1.782 0.039,2.18 0.066,0.365 0.051,-1.243 0.039,2.634 0.074,0.887 0.079,-0.488 0.039,0.076 0.05,0.95 0.063,0.463 0.09,-0.085 0.015,0.67 0.063,3.024 0.039,-3.011 0.074,3.278 0.067,-0.538 0.039,-2.303 0.062,5.607 0.051,-5.035 0.078,1.234 0.051,2.401 0.023,-2.498 0.051,2.057 0.078,-3.703 0.078,-0.539 0.039,1.137 0.051,-1.514 0.039,-0.131 0.074,-0.514 0.079,-0.012 0.011,-0.098 0.067,-0.047 0.074,-0.051 0.039,0.111 0.066,0.085 0.063,-0.145 0.078,-0.089 0.039,0.111 0.051,0.038 0.051,-0.013 0.035,-0.098 0.078,-0.084 0.039,0.207 0.063,-0.072 0.054,-0.051 0.074,0.039 0.051,0.034 0.067,0.11 0.05,0.025 0.051,0.034 0.039,0.038 0.063,0.072 0.051,-0.072 0.039,0.06 0.089,-0.085 0.063,-0.013 0.039,0.077 0.051,0.059 0.078,-0.059 0.039,0.195 0.051,-0.039 0.062,-0.123 0.051,0.111 0.078,-0.208 0.051,0.076 0.039,-0.123 0.062,0.098 0.09,-0.098 0.016,0 0.062,-0.025 0.04,-0.06 0.078,-0.084 0.05,0.157 0.051,-0.221 0.063,0.051 0.05,0.047 0.079,0.11 0.023,-0.013 0.066,-0.293 0.04,-0.046 0.074,0.22 0.066,-0.076 0.051,0.038 0.051,0.026 0.078,-0.039 0.035,0.136 0.066,-0.063 0.012,0.076 0.078,0.059 0.074,0.047 0.055,0.025 0.035,0.013 0.078,-0.072 0.079,0.157 0.039,-0.123 0.05,0.148 0.024,0.085 0.09,-0.195 0.05,-0.025 0.039,0.097 0.063,0.161 0.055,-0.076 0.09,0.025 0.035,-0.156 0.066,-0.077 0.039,0.038 0.063,-0.025 0.062,-0.047 0.039,0 0.051,-0.012 0.078,-0.026 0.051,-0.047 0.062,-0.123 0.055,0.098 0.039,-0.025 0.063,-0.111 0.05,0.187 0.051,-0.259 0.063,-0.072 0.078,0.208 0.039,0.157 0.062,-0.229 0.039,-0.013 0.063,0.013 0.055,0.072 0.035,0.013 0.078,0.084 0.051,0.073 0.066,0.012 0.051,0.047 0.074,0 0.039,-0.013 0.078,0.149 0.051,-0.183 0.027,0.026 0.063,0.203 0.039,0.051 0.074,-0.195 0.067,0.28 0.05,-0.182 0.051,0.157 0.078,-0.306 0.063,0.038 0.012,0 0.066,-0.072 0.09,0.072 0.035,0.013 0.055,-0.059 0.035,-0.026 0.066,-0.025 0.09,0 0.039,-0.047 0.051,0.047 0.023,-0.229 0.078,0.034 0.063,-0.026 0.066,-0.093 0.039,0.119 0.075,-0.047 0.066,0.085 0.035,-0.038 0.067,0.208 0.011,0 0.078,-0.196 0.075,-0.025 0.039,0.098 0.05,0.025 0.079,0.085 0.062,0.025 0.055,0 0.051,0.098 0.035,-0.064 0.066,-0.008 0.051,0.131 0.051,0.064 0.062,-0.195 0.078,0.046 0.039,-0.038 0.051,0.11 0.078,0.208 0.075,-0.11 0.015,-0.216 0.035,0.085 0.067,0.072 0.062,-0.111 0.078,-0.025 0.039,0.038 0.063,-0.072 0.051,-0.013 0.078,-0.012 0.051,-0.013 0.027,-0.06 0.051,0.06 0.09,-0.013 0.035,-0.242 0.066,0 0.051,0.013 0.039,0.144 0.09,-0.131 0.062,0.182 0.012,-0.195 0.066,0.059 0.09,0.17 0.039,0.013 0.051,-0.157 0.063,0.059 0.05,0.123 0.079,-0.038 0.05,0.038 0.039,0.047 0.039,0.025 0.075,0.039 0.05,-0.098 0.067,0.182 0.039,-0.084 0.074,0.182 0.051,-0.161 0.078,-0.119 0.039,0.352 0.012,-0.182 0.078,0 0.062,-0.098 0.067,0.072 0.035,-0.123 0.078,-0.034 0.067,0.123 0.035,-0.11 0.066,0.013 0.063,-0.026 0.039,-0.059 0.05,0 0.04,-0.026 0.078,0.026 0.074,-0.174 0.051,0.221 0.039,-0.183 0.078,-0.051 0.074,-0.021 0.016,0.11 0.062,0.145 0.039,-0.145 0.09,-0.123 0.051,0.145 0.039,-0.132 0.062,0.242 0.051,0.013 0.09,-0.123 0.027,0.076 0.039,0.059 0.051,0.026 0.074,0.046 0.079,0.06 0.039,-0.106 0.05,0 0.079,-0.026 0.039,0.034 0.074,0.272 0.012,-0.077 0.066,0.111 0.074,-0.013 0.039,-0.106 0.067,-0.187 0.062,0.221 0.078,-0.255 0.102,0 0.027,0.06 0.051,-0.034 0.074,-0.026 0.039,-0.072 0.078,-0.051 0.051,0 0.063,-0.025 0.054,0.025 0.063,-0.169 0.051,0.038 0.05,0.119 0.063,0.012 0.039,0.111 0.051,-0.098 0.051,-0.072 0.078,-0.136 0.062,0.072 0.055,0.064 0.035,0.059 0.078,-0.012 0.039,0.05 0.051,0.073 0.062,0.012 0.09,0.047 0.039,-0.013 0.051,0 0.039,-0.008 0.063,0.157 0.066,-0.051 0.039,-0.009 0.063,-0.11 0.039,0.182 0.078,0.123 0.062,0.009 0.067,-0.06 0.113,0 0.063,-0.025 0.027,-0.242 0.051,0.026 0.039,0.059 0.078,-0.059 0.074,-0.026 0.039,-0.038 0.051,-0.021 0.078,0.047 0.063,-0.06 0.011,-0.182 0.078,0.085 0.039,-0.064 0.079,-0.047 0.05,0.221 0.051,-0.123 0.063,0.097 0.078,-0.148 0.039,0.123 0.051,0 0.039,-0.047 0.074,0.098 0.055,0.047 0.035,-0.098 0.066,0.072 0.063,0.038 0.078,0.026 0.039,0.021 0.062,0.025 0.012,0.039 0.09,0.046 0.066,0.064 0.035,-0.098 0.055,0.098 0.086,0.046 0.039,0.073 0.063,-0.034 0.054,-0.221 0.035,0.098 0.079,-0.098 0.05,0.136 0.039,-0.051 0.063,-0.136 0.078,0.051 0.051,-0.072 0.051,-0.013 0.066,-0.012 0.051,-0.06 0.039,-0.051 0.051,0.064 0.062,-0.174 0.051,0.174 0.078,0 0.039,-0.221 0.074,0.132 0.039,0.063 0.079,-0.135 0.039,0.135 0.039,-0.012 0.062,-0.183 0.039,0.085 0.074,0.123 0.067,-0.085 0.062,0.072 0.039,0.013 0.079,0.072 0.062,0.013 0.016,0.059 0.074,0.039 0.078,-0.098 0.039,0.059 0.051,0 0.039,0.111 0.074,0.072 0.078,-0.123 0.051,0.051 0.039,0.144 0.039,-0.034 0.074,-0.026 0.051,-0.025 0.067,-0.229 0.039,0.131 0.089,-0.021 0.051,-0.076 0.035,-0.021 0.067,-0.026 0.09,-0.097 0.078,0.025 0.051,-0.063 0.039,-0.132 0.074,0.255 0.078,-0.085 0.039,-0.051 0.051,-0.034 0.062,-0.072 0.039,0.008 0.063,0.051 0.039,0.06 0.066,0.038 0.075,0.038 0.05,-0.161 0.055,0.182 0.063,0.026 0.078,-0.013 0.011,0.025 0.063,0.034 0.051,-0.021 0.05,-0.013 0.079,0.195 0.039,-0.051 0.078,0.123 0.051,-0.169 0.062,0.059 0.039,0.072 0.039,-0.097 0.051,0.135 0.09,-0.233 0.062,0.149 0.039,0.046 0.051,-0.072 0.051,-0.123 0.078,0.077 0.063,-0.026 0.011,-0.059 0.067,-0.026 0.089,-0.072 0.04,-0.051 0.05,0.064 0.063,-0.123 0.09,0.047 0.039,0.025 0.051,-0.013 0.027,-0.229 0.051,0.034 0.074,0.026 0.051,0 0.066,0.11 0.039,-0.085 0.074,0.098 0.067,-0.085 0.062,0.242 0.039,-0.026 0.09,0 0.078,0.038 0.051,0.026 0.039,0.072 0.074,0.025 0.067,0.009 0.051,0 0.05,-0.106 0.063,-0.013 0.039,0.267 0.051,0.072 0.078,-0.072 0.039,-0.038 0.074,-0.085 0.051,-0.11 0.039,0.11 0.078,-0.013 0.051,-0.046 0.039,0 0.062,-0.072 0.039,0.021 0.09,-0.047 0.051,-0.038 0.066,-0.059 0.036,0.012 0.066,-0.025 0.074,-0.059 0.028,0.059 0.05,0.085 0.039,-0.306 0.09,0.039 0.063,0.267 0.039,-0.123 0.051,-0.085 0.078,-0.047 0.074,0.17 0.016,-0.136 0.035,0.098 0.066,0.013 0.078,0.025 0.063,0.098 0.039,0.012 0.062,0.034 0.078,-0.021 0.051,0.034 0.051,0.025 0.027,0.098 0.051,0.059 0.074,-0.203 0.043,0.301 0.075,-0.183 0.05,-0.033 0.078,0.131 0.04,0 0.074,-0.131 0.015,0.11 0.075,-0.149 0.062,-0.059 0.039,0.131 0.102,-0.11 0.078,-0.034 0.066,-0.025 0.051,0.013 0.051,-0.073 0.062,0.026 0.039,0.021 0.051,-0.157 0.067,0.038 0.089,0.022 0.036,-0.098 0.05,-0.034 0.039,0 0.067,0.17 0.062,-0.038 0.039,-0.047 0.063,-0.064 0.051,0.187 0.078,-0.026 0.051,0.026 0.066,0.034 0.035,0.025 0.078,0.013 0.051,-0.013 0.039,0.085 0.051,-0.059 0.039,0.085 0.074,-0.013 0.078,-0.013 0.055,0.136 0.035,-0.051 0.078,0.157 0.078,-0.021 0.012,-0.293 0.063,0.034 0.039,0.097 0.078,-0.097 0.051,0.174 0.05,-0.161 0.063,-0.034 0.078,-0.013 0.051,-0.013 0.051,-0.059 0.027,0.021 0.074,-0.097 0.055,-0.034 0.062,0.084 0.051,-0.135 0.051,-0.098 0.078,0.149 0.039,-0.026 0.063,-0.097 0.011,0.025 0.09,0.157 0.067,-0.136 0.035,0.136 0.066,-0.144 0.09,0.242 0.051,-0.073 0.039,0.026 0.062,0.021 0.039,0.038 0.063,0.026 0.066,0 0.039,0.131 0.051,-0.144 0.09,0.059 0.035,0.149 0.066,0.085 0.051,-0.136 0.078,-0.11 0.036,0.072 0.039,0.161 0.05,-0.267 0.067,0.059 0.078,0.072 0.047,-0.072 0.054,-0.025 0.036,-0.026 0.078,0.064 0.039,-0.051 0.051,-0.047 0.062,-0.025 0.055,0.013 0.062,-0.06 0.051,-0.123 0.078,0.072 0.039,-0.025 0.074,-0.06 0.051,0.073 0.028,0.025 0.062,0.051 0.078,-0.306 0.039,0.306 0.063,-0.187 0.066,0.221 0.035,0 0.078,-0.047 0.063,0 0.016,0.047 0.074,0 0.078,0.025 0.039,0.026 0.051,0.034 0.039,0.038 0.09,0.046 0.062,0.039 0.051,-0.17 0.039,0 0.027,0.098 0.09,0.144 0.051,-0.242 0.063,0 0.039,0.034 0.089,0.208 0.051,-0.208 0.039,0.136 0.063,0 0.051,-0.157 0.039,0.008 0.078,0 0.039,-0.034 0.051,-0.072 0.074,-0.038 0.078,-0.059 0.039,0.021 0.051,-0.098 0.039,0.208 0.062,-0.293 0.067,0.246 0.035,-0.038 0.066,-0.097 0.074,0.025 0.04,0.085 0.062,-0.11 0.066,0.097 0.079,-0.025 0.011,-0.072 0.063,0.123 0.051,-0.026 0.078,0.111 0.05,0.012 0.04,0 0.078,0.111 0.05,0 0.063,-0.064 0.039,0.11 0.039,-0.123 0.051,-0.034 0.09,0.183 0.066,-0.098 0.035,0.17 0.051,0.072 0.09,-0.021 0.039,-0.174 0.062,0.135 0.016,-0.233 0.063,0.089 0.089,-0.123 0.039,0.072 0.051,-0.038 0.063,-0.034 0.051,-0.025 0.078,-0.085 0.05,-0.038 0.028,-0.06 0.074,0.208 0.066,-0.267 0.039,0.059 0.063,-0.11 0.039,0.233 0.078,-0.233 0.063,0.098 0.062,0.195 0.039,-0.144 0.051,0.046 0.039,-0.072 0.078,-0.013 0.051,0.136 0.039,0.047 0.074,-0.013 0.067,0.038 0.05,0.013 0.051,0.085 0.063,0.046 0.039,-0.046 0.051,0.123 0.05,-0.051 0.079,0.013 0.062,-0.111 0.055,-0.046 0.035,0.216 0.078,-0.242 0.039,0.293 0.051,-0.123 0.062,-0.013 0.039,-0.097 0.09,-0.013 0.051,-0.013 0.039,0 0.063,-0.008 0.089,-0.026 0.055,-0.012 0.024,-0.047 0.05,-0.076 0.039,0 0.09,0.063 0.063,-0.085 0.039,0.072 0.054,-0.246 0.075,0.246 0.05,-0.246 0.04,0.234 0.039,0.059 0.074,-0.034 0.066,0.06 0.063,-0.196 0.039,0.039 0.062,0.012 0.078,0.085 0.051,0.013 0.051,0.059 0.027,0.026 0.075,0.021 0.054,0.097 0.035,-0.012 0.078,0.038 0.051,0.097 0.078,0.026 0.039,-0.161 0.079,0.135 0.035,-0.267 0.054,0 0.063,0.026 0.039,0.118 0.062,-0.046 0.079,0.123 0.035,-0.077 0.066,-0.118 0.051,-0.013 0.051,0.034 0.062,-0.047 0.039,-0.012 0.051,-0.026 0.066,-0.097 0.09,0.11 0.036,-0.072 0.054,-0.157 0.035,0.119 0.094,-0.013 0.035,-0.047 0.039,-0.085 0.067,-0.072 0.035,0.204 0.09,-0.17 0.051,0.183 0.066,0 0.039,0.012 0.074,-0.012 0.067,0.123 0.023,-0.047 0.051,0.059 0.078,0.034 0.039,0.064 0.074,0 0.039,0.097 0.051,-0.072 0.078,-0.089 0.078,0.098 0.012,-0.034 0.063,0 0.05,0.072 0.067,0.025 0.062,-0.051 0.039,0.077 0.063,-0.089 0.078,-0.085 0.039,0.064 0.062,0 0.028,-0.013 0.078,-0.051 0.051,-0.047 0.062,-0.038 0.051,0.026 0.078,-0.026 0.051,0.013 0.039,-0.183 0.062,0 0.012,0.123 0.09,-0.169 0.066,0.106 0.04,-0.217 0.05,0.132 0.09,0.195 0.063,-0.182 0.039,-0.047 0.05,0.255 0.04,-0.098 0.078,-0.047 0.05,0.072 0.036,0.047 0.066,0.038 0.09,0.026 0.039,-0.013 0.051,0.098 0.062,0.033 0.078,0.051 0.024,0.047 0.039,0.076 0.066,-0.233 0.074,0.255 0.051,-0.013 0.051,-0.314 0.066,0.267 0.039,-0.11 0.075,-0.098 0.039,0.026 0.051,0.046 0.05,-0.059 0.078,-0.013"
         inkscape:connector-curvature="0" /></g><g
       transform="matrix(1,0,0,-0.920941,0,841.88977)"
       id="g7376"><path
         id="path7378"
         style="fill:none;stroke:#00509b;stroke-width:0.91699499;stroke-linecap:butt;stroke-linejoin:round;stroke-miterlimit:4;stroke-opacity:1;stroke-dasharray:none"
         d="m 265.523,447.101 0.039,-0.072 0.063,0 0.066,-0.975 0.036,-1.146 0.078,-0.572 0.066,-1.68 0.012,1.582 0.074,1.939 0.078,-4.144 0.039,-1.281 0.051,4.801 0.039,-3.775 0.09,-0.649 0.062,0.709 0.051,2.154 0.028,-2.519 0.062,4.593 0.066,-0.513 0.051,-0.488 0.063,1.341 0.039,-0.535 0.09,1.158 0.05,0.658 0.039,0.292 0.063,-0.025 0.051,1.217 0.054,-1.022 0.063,0.416 0.051,-0.149 0.039,-0.437 0.09,0.157 0.062,4.39 0.039,-3.155 0.051,-0.234 0.062,1.964 0.051,0.11 0.055,-0.318 0.039,-0.513 0.074,-2.74 0.067,0.229 0.062,0.246 0.039,-1.086 0.063,-0.449 0.039,-0.026 0.051,-0.538 0.078,-1.023 0.039,0.306 0.074,-0.645 0.051,-0.768 0.039,-1.45 0.078,-2.198 0.051,3.084 0.078,-3.084 0.023,3.317 0.039,-2.277 0.063,3.775 0.078,-1.375 0.062,2.121 0.039,-1.73 0.051,1.582 0.09,0.331 0.039,1.047 0.039,0.144 0.039,0.539 0.063,-0.148 0.09,2.583 0.039,-0.462 0.05,0.988 0.063,-1.671 0.09,1.255 0.039,-2.167 0.051,1.217 0.027,-0.267 0.078,3.851 0.063,-2.668 0.039,0.424 0.062,0.514 0.051,0.157 0.066,-1.973 0.063,-0.025 0.062,-2.108 0.039,-0.183 0.051,-0.865 0.078,-0.513 0.039,-0.62 0.051,-1.951 0.039,-0.729 0.078,3.911 0.075,-2.316 0.05,0.207 0.039,1.633 0.067,-0.39 0.035,-3.414 0.066,1.234 0.063,-0.11 0.051,-2.146 0.066,1.887 0.051,2.562 0.051,0.157 0.062,0.157 0.051,0.199 0.039,1.107 0.063,0.501 0.054,1.276 0.074,-0.352 0.051,2.427 0.067,1.204 0.039,-0.085 0.09,-0.339 0.05,1.315 0.024,-2.74 0.051,-0.28 0.039,3.873 0.089,-0.548 0.067,-0.547 0.035,-3.681 0.051,1.594 0.09,0.781 0.066,-2.694 0.012,0.365 0.039,-1.107 0.074,-0.963 0.078,-0.67 0.051,-0.975 0.039,-1.659 0.066,0.988 0.09,1.574 0.035,-1.463 0.051,-3.084 0.028,3.788 0.078,-3.046 0.05,1.048 0.051,-3.996 0.063,4.789 0.05,0.39 0.079,1.426 0.05,-3.546 0.063,1.633 0.016,1.535 0.078,0.233 0.062,0.132 0.051,0.903 0.051,0.95 0.078,-0.025 0.035,-0.522 0.066,3.521 0.063,-0.085 0.039,2.18 0.066,-1.595 0.051,1.79 0.039,-2.668 0.074,1.061 0.079,-2.571 0.039,-1.026 0.05,3.745 0.063,-3.342 0.062,0.818 0.039,0.17 0.04,0.182 0.066,-1.217 0.051,-1.243 0.09,-0.123 0.039,-0.403 0.062,-1.51 0.039,0.378 0.09,-0.963 0.039,0.059 0.035,-1.997 0.051,0.246 0.078,-2.21 0.051,-1.056 0.066,4.347 0.051,-4.021 0.035,4.853 0.078,0.581 0.079,0.793 0.011,0.356 0.067,-1.73 0.074,0.156 0.039,-0.05 0.062,1.085 0.04,1.086 0.062,0.866 0.078,-0.073 0.063,1.57 0.027,-1.459 0.039,0.021 0.078,4.195 0.051,0.632 0.078,-2.18 0.035,3.278 0.078,-1.522 0.051,-1.014 0.039,-0.378 0.078,0.196 0.012,1.768 0.078,-0.759 0.063,-0.959 0.039,-1.442 0.062,-1.374 0.078,-1.111 0.063,-0.255 0.039,-0.377 0.051,-0.56 0.05,-2.486 0.067,1.862 0.051,-3.338 0.039,1.302 0.062,-0.097 0.09,2.901 0.039,-6.506 0.051,4.958 0.062,-1.569 0.039,-2.66 0.063,3.266 0.066,-2.193 0.039,3.266 0.075,-1.862 0.066,2.083 0.039,1.412 0.063,-0.428 0.05,1.026 0.063,0.683 0.051,-0.157 0.039,2.019 0.051,-1.009 0.078,1.17 0.066,-0.012 0.051,-1.705 0.051,5.934 0.039,-3.682 0.074,-0.997 0.039,-0.929 0.051,4.95 0.066,-4.403 0.074,3.05 0.039,-2.549 0.051,-1.849 0.078,1.166 0.078,-1.451 0.036,0.234 0.05,-0.463 0.028,-0.352 0.062,-0.988 0.078,-0.526 0.039,-2.524 0.063,3.245 0.039,-2.244 0.09,-0.984 0.051,0 0.066,-0.513 0.012,0.95 0.09,-1.463 0.039,2.986 0.062,-4.182 0.051,4.11 0.039,-1.417 0.09,0.098 0.062,3.172 0.039,-0.598 0.051,0.144 0.067,1.086 0.046,0.904 0.055,1.107 0.035,-0.157 0.078,0.488 0.079,1.79 0.05,-0.501 0.039,-1.523 0.063,2.74 0.039,-0.755 0.051,0.624 0.078,-1.124 0.039,2.184 0.074,-3.414 0.051,-1.23 0.055,-0.034 0.062,2.337 0.051,-1.4 0.078,-1.51 0.023,0.098 0.067,-0.624 0.035,-0.598 0.078,-0.377 0.063,-1.913 0.039,-0.28 0.066,2.133 0.074,-2.413 0.039,-2.558 0.039,1.642 0.04,3.257 0.078,-0.102 0.074,-3.825 0.051,0.852 0.039,0.942 0.078,-1.307 0.078,-0.326 0.035,2.142 0.051,0.806 0.027,-0.149 0.09,1.332 0.051,0.742 0.039,0.683 0.062,0.938 0.051,-1.158 0.09,2.061 0.039,0.789 0.067,-1.51 0.011,2.316 0.078,0.352 0.075,0.174 0.039,-0.441 0.062,-0.912 0.078,-0.077 0.051,-0.606 0.051,3.143 0.066,-1.243 0.035,-1.769 0.051,0.573 0.039,-2.108 0.078,-0.365 0.051,-0.84 0.078,-1.17 0.039,-0.437 0.075,-0.149 0.039,-0.352 0.05,-3.122 0.067,2.77 0.039,0.815 0.062,-3.814 0.063,2.728 0.055,0.903 0.062,0.84 0.051,-5.582 0.051,3.415 0.078,-1.829 0.039,1.29 0.035,0.585 0.066,0.916 0.051,1.561 0.078,0.183 0.051,0.449 0.063,0.267 0.039,1.574 0.089,0.085 0.051,1.192 0.024,1.828 0.054,-0.573 0.075,-2.082 0.05,0.085 0.067,0.538 0.039,-0.182 0.051,0.254 0.086,-2.12 0.039,0.156 0.039,1.332 0.039,0.463 0.078,1.365 0.074,-2.731 0.051,0.488 0.039,-1.392 0.078,-0.547 0.078,-0.488 0.035,-0.318 0.051,0.136 0.027,-0.67 0.079,-0.611 0.05,-2.545 0.051,3.436 0.063,-4.573 0.078,-1.679 0.051,3.703 0.05,-2.825 0.067,4.093 0.011,-3.665 0.079,2.337 0.062,-0.988 0.051,2.973 0.051,1.184 0.078,-1.29 0.039,1.557 0.062,0.233 0.063,0.645 0.039,0.5 0.066,-0.123 0.039,2.499 0.051,1.06 0.074,-1.679 0.078,3.52 0.04,-0.339 0.05,-0.403 0.039,1.679 0.09,-1.484 0.039,-4.488 0.035,1.392 0.067,2.464 0.09,-2.367 0.039,-2.036 0.051,0.331 0.062,0.534 0.039,-1.399 0.09,-0.306 0.039,-0.475 0.035,-0.975 0.055,-1.875 0.074,0.522 0.055,0.729 0.062,1.014 0.051,-0.573 0.063,0.28 0.05,-5.438 0.078,1.634 0.012,2.697 0.067,1.536 0.078,-4.976 0.035,2.511 0.066,0.501 0.035,2.061 0.079,-0.683 0.066,1.171 0.062,-0.246 0.024,0.585 0.039,1.073 0.078,-0.708 0.051,2.609 0.078,-2.537 0.035,0.369 0.078,0.73 0.051,2.485 0.039,-1.679 0.078,2.422 0.051,-1.061 0.039,-0.924 0.063,4.033 0.039,-3.826 0.062,-0.78 0.078,0.475 0.063,-0.038 0.039,-0.424 0.051,-1.23 0.05,-0.768 0.067,-0.221 0.051,-0.708 0.039,-1.082 0.074,-1.599 0.078,1.659 0.039,-2.011 0.051,0.865 0.062,-0.182 0.09,0.56 0.016,-1.9 0.035,3.24 0.066,-1.484 0.075,-1.099 0.066,-0.39 0.039,0.513 0.063,-0.857 0.078,2.354 0.039,1.489 0.051,0.191 0.035,0.208 0.054,0.233 0.075,0.853 0.039,-0.195 0.078,1.671 0.051,1.561 0.078,-2.113 0.035,-0.301 0.078,1.582 0.012,2.193 0.066,0.136 0.074,0.611 0.039,-4.305 0.051,2.451 0.078,0.963 0.051,0.034 0.066,-3.872 0.051,1.51 0.024,-0.828 0.09,0 0.05,-1.242 0.039,-0.709 0.067,-0.547 0.051,-0.623 0.074,-0.768 0.051,-1.68 0.066,-0.428 0.039,2.439 0.063,-4.988 0.039,5.815 0.062,-2.375 0.051,-0.526 0.09,1.879 0.039,-1.939 0.062,0.963 0.039,1.815 0.051,-4.059 0.078,3.071 0.039,-1.366 0.051,1.43 0.039,1.23 0.074,0.657 0.079,1.158 0.05,0.522 0.039,-0.679 0.078,0.45 0.024,-0.67 0.066,1.204 0.063,2.889 0.039,-1.79 0.074,1.243 0.055,-1.769 0.051,4.229 0.062,-4.836 0.078,2.325 0.051,-3.169 0.027,2.27 0.051,-2.622 0.051,0.072 0.074,0.064 0.067,0 0.035,-0.891 0.066,-1.026 0.078,-0.183 0.035,0.501 0.039,-1.06 0.039,0.559 0.09,-1.374 0.063,0.208 0.039,-1.158 0.051,0.378 0.078,2.069 0.078,-4.496 0.035,4.132 0.055,-2.558 0.023,1.192 0.09,2.023 0.051,-3.58 0.039,2.337 0.062,0.56 0.078,0.904 0.051,0.572 0.051,0.34 0.066,-0.022 0.012,2.974 0.078,-1.561 0.075,0.22 0.039,1.277 0.05,2.426 0.078,1.086 0.04,-1.132 0.074,-0.17 0.051,-3.928 0.039,3.058 0.066,-0.984 0.039,-1.378 0.063,-1.048 0.066,-0.611 0.074,2.465 0.039,-1.222 0.063,-1.679 0.039,-0.111 0.078,-0.195 0.039,-1.828 0.035,-0.148 0.078,-1.375 0.039,-1.327 0.078,2.655 0.051,-0.11 0.063,-0.84 0.051,-3.512 0.078,5.437 0.011,-5.836 0.063,0.484 0.055,1.124 0.089,1.281 0.039,3.287 0.063,-1.438 0.039,1.803 0.051,-1.264 0.09,0.839 0.062,0.963 0.012,0.806 0.066,1.472 0.063,-1.472 0.062,2.876 0.055,-2.498 0.039,1.997 0.074,2.571 0.078,-4.131 0.039,4.462 0.036,-0.123 0.039,-0.123 0.078,-3.228 0.062,1.204 0.067,-2.888 0.035,4.11 0.078,-2.706 0.066,0.11 0.036,-1.391 0.066,-0.085 0.012,-0.963 0.078,-0.059 0.078,-0.051 0.035,-0.047 0.051,0.085 0.078,-0.063 0.039,-0.157 0.078,0.182 0.051,-0.242 0.039,0.157 0.063,-0.072 0.05,-0.098 0.039,0.098 0.075,-0.013 0.078,0.072 0.039,0.149 0.051,-0.089 0.078,0 0.05,0.038 0.04,0.051 0.039,0.059 0.062,0 0.09,0.06 0.051,0.063 0.039,0.047 0.062,0.085 0.039,-0.208 0.09,-0.021 0.039,0.046 0.039,-0.038 0.051,0.187 0.09,-0.11 0.039,0.131 0.062,-0.208 0.051,0.013 0.078,0.076 0.051,0.072 0.074,-0.161 0.067,-0.021 0.074,-0.013 0.055,-0.072 0.05,0.06 0.04,-0.098 0.074,-0.123 0.062,0.025 0.067,0.085 0.023,0 0.051,-0.046 0.066,-0.051 0.051,0.063 0.078,0.119 0.039,0 0.075,-0.157 0.05,0.157 0.039,-0.208 0.078,0.077 0.051,-0.013 0.039,0.182 0.063,-0.025 0.062,0.025 0.039,0.034 0.079,0.051 0.066,0.038 0.035,0.034 0.066,0.064 0.063,0.072 0.039,-0.072 0.09,-0.195 0.09,0.28 0.062,-0.306 0.051,0.047 0.039,0.013 0.066,0.025 0.051,0.157 0.051,-0.229 0.063,0.059 0.039,-0.046 0.089,0.008 0.051,-0.034 0.039,-0.059 0.063,0.021 0.078,-0.059 0.062,-0.123 0.028,0.148 0.035,-0.161 0.055,0.195 0.074,-0.339 0.078,0.169 0.039,-0.072 0.051,0.034 0.078,0.051 0.039,-0.072 0.051,0.072 0.039,-0.013 0.062,-0.012 0.078,0.038 0.036,0.182 0.066,-0.038 0.062,0.038 0.079,0.034 0.039,0 0.05,0.026 0.04,0.097 0.074,0 0.051,0.149 0.039,-0.183 0.066,0.098 0.051,0.034 0.074,0 0.051,-0.183 0.066,0.208 0.012,-0.123 0.09,0.064 0.039,-0.064 0.062,-0.059 0.051,0.025 0.09,-0.076 0.039,-0.034 0.066,-0.013 0.039,-0.025 0.051,-0.034 0.074,-0.098 0.04,0.009 0.05,0.136 0.063,-0.047 0.054,-0.195 0.075,0.046 0.051,0 0.039,-0.046 0.078,-0.123 0.039,0.22 0.051,-0.012 0.062,-0.013 0.039,0.157 0.078,0 0.063,0.013 0.062,-0.013 0.039,-0.034 0.078,0.059 0.012,0.047 0.078,0.025 0.051,0 0.039,0.013 0.074,0 0.067,0.047 0.051,0.148 0.05,-0.136 0.078,-0.059 0.063,0.267 0.012,-0.195 0.054,-0.025 0.075,0.012 0.066,-0.072 0.051,0.072 0.039,-0.144 0.074,0.132 0.078,-0.021 0.039,-0.085 0.039,-0.026 0.035,-0.025 0.09,-0.085 0.051,0 0.039,0.038 0.067,0.013 0.085,-0.013 0.051,-0.22 0.043,0.11 0.063,0.182 0.011,-0.267 0.09,0.059 0.063,0.183 0.039,-0.314 0.051,0.314 0.078,-0.17 0.05,0.06 0.067,0.11 0.051,-0.085 0.039,0.11 0.062,0 0.051,0.013 0.051,0.021 0.066,0.064 0.074,-0.085 0.051,0.098 0.051,-0.051 0.039,0.207 0.063,-0.038 0.054,-0.216 0.039,0.11 0.075,-0.097 0.05,0 0.067,0.097 0.05,-0.089 0.079,0.013 0.035,0 0.078,-0.034 0.039,0.021 0.039,0.013 0.063,-0.047 0.078,-0.852 0.035,0.28 0.066,-0.84 0.051,0 0.051,-2.575 0.078,3.122 0.062,-0.768 0.012,-5.23 0.067,0.734 0.089,3.618 0.039,0.696 0.051,-5.289 0.039,3.291 0.09,0.547 0.063,1.693 0.05,0.988 0.028,-0.267 0.035,-0.085 0.09,0.56 0.051,0.377 0.066,0.221 0.035,1.255 0.082,-0.441 0.063,1.621 0.039,-1.485 0.062,-0.208 0.051,2.545 0.039,-1.62 0.078,-0.217 0.035,2.876 0.051,0.437 0.078,2.036 0.078,-4.339 0.039,-1.828 0.051,0.352 0.039,0.331 0.063,0.963 0.051,-1.307 0.05,-1.06 0.067,-0.132 0.074,-0.806 0.039,-0.996 0.062,1.437 0.067,-3.401 0.039,0.208 0.051,0.865 0.062,-0.306 0.051,-1.594 0.078,2.447 0.051,-2.29 0.039,1.022 0.062,2.672 0.067,-0.942 0.062,-1.654 0.039,2.142 0.04,-1.094 0.05,1.009 0.09,0.916 0.039,-0.525 0.063,0.89 0.05,0.183 0.09,1.158 0.039,-0.815 0.039,3.886 0.036,-1.354 0.066,-2.413 0.09,2.719 0.039,-1.048 0.051,1.061 0.062,3.253 0.051,-2.121 0.078,-2.388 0.051,1.972 0.027,-3.397 0.074,4.25 0.051,-2.787 0.051,0.899 0.066,-1.412 0.039,-0.645 0.075,-1.001 0.051,-0.28 0.078,-0.755 0.011,0.658 0.078,-1.828 0.04,-2.257 0.062,1.014 0.066,-0.013 0.036,0.501 0.089,1.204 0.055,-2.46 0.035,2.265 0.078,-1.79 0.051,1.425 0.039,-0.195 0.063,0.611 0.039,1.23 0.09,-2.693 0.05,1.23 0.067,1.17 0.035,0.963 0.066,0.598 0.036,0.671 0.066,2.082 0.051,-2.341 0.039,0.356 0.09,-0.696 0.062,0.514 0.039,5.14 0.051,-3.948 0.09,-0.73 0.027,4.276 0.051,-3.559 0.062,3.304 0.04,-3.461 0.089,-0.526 0.051,1.574 0.039,-1.952 0.067,0.539 0.074,-0.708 0.051,-1.133 0.039,-0.538 0.039,-1.264 0.074,0.411 0.055,-0.67 0.074,-2.545 0.039,3.385 0.051,-4.802 0.078,0.781 0.039,-1.095 0.051,2.656 0.039,-1.646 0.074,4.292 0.066,-2.986 0.036,-1.026 0.066,-0.255 0.062,4.522 0.079,-1.294 0.039,1.586 0.062,-0.538 0.027,1.026 0.075,0.658 0.05,0.475 0.04,0.169 0.078,0.573 0.078,0.305 0.039,2.999 0.047,-3.681 0.066,1.085 0.012,-1.73 0.09,5.276 0.039,1.124 0.062,-1.124 0.055,-4.593 0.086,1.463 0.039,0.755 0.066,-1.803 0.036,-0.369 0.054,0.234 0.074,-1.353 0.039,-0.463 0.051,-0.513 0.039,-1.255 0.078,1.124 0.075,-0.577 0.05,-0.145 0.04,-0.072 0.078,-4.95 0.027,3.631 0.062,-2.01 0.067,-0.229 0.074,-1.001 0.039,1.781 0.063,-2.524 0.039,2.499 0.062,-0.331 0.078,3.864 0.051,-2.447 0.039,0.852 0.051,1.79 0.066,0.513 0.051,1.01 0.063,-0.67 0.05,2.952 0.051,-1.489 0.078,1.684 0.039,-1.391 0.039,-0.145 0.051,-0.636 0.074,-0.326 0.067,1.145 0.051,3.007 0.039,-3.253 0.09,3.851 0.062,-4.118 0.039,1.391 0.051,-0.318 0.023,-0.331"
         inkscape:connector-curvature="0" /></g></g></g>

</g></svg>